%TF.GenerationSoftware,KiCad,Pcbnew,(6.0.10)*%
%TF.CreationDate,2023-01-15T11:01:49+05:00*%
%TF.ProjectId,key55,6b657935-352e-46b6-9963-61645f706362,rev?*%
%TF.SameCoordinates,Original*%
%TF.FileFunction,Drillmap*%
%TF.FilePolarity,Positive*%
%FSLAX45Y45*%
G04 Gerber Fmt 4.5, Leading zero omitted, Abs format (unit mm)*
G04 Created by KiCad (PCBNEW (6.0.10)) date 2023-01-15 11:01:49*
%MOMM*%
%LPD*%
G01*
G04 APERTURE LIST*
%ADD10C,0.100000*%
%ADD11C,0.200000*%
%ADD12C,0.040000*%
%ADD13C,0.099060*%
%ADD14C,0.110000*%
G04 APERTURE END LIST*
D10*
X1270000Y-1111250D02*
G75*
G03*
X1111250Y-1270000I0J-158750D01*
G01*
X1111250Y-1270000D02*
X1111250Y-8890000D01*
X1270000Y-9048750D02*
X29845000Y-9048750D01*
X29845000Y-1111250D02*
X1270000Y-1111250D01*
X1111250Y-8890000D02*
G75*
G03*
X1270000Y-9048750I158750J0D01*
G01*
X30003750Y-8890000D02*
X30003750Y-1270000D01*
X29845000Y-9048750D02*
G75*
G03*
X30003750Y-8890000I0J158750D01*
G01*
X30003750Y-1270000D02*
G75*
G03*
X29845000Y-1111250I-158750J0D01*
G01*
D11*
D12*
X5780250Y-3069750D02*
X5820250Y-3109750D01*
X5820250Y-3069750D02*
X5780250Y-3109750D01*
X7203125Y-2655950D02*
X7243125Y-2695950D01*
X7243125Y-2655950D02*
X7203125Y-2695950D01*
X9584375Y-2678750D02*
X9624375Y-2718750D01*
X9624375Y-2678750D02*
X9584375Y-2718750D01*
X11013125Y-2678750D02*
X11053125Y-2718750D01*
X11053125Y-2678750D02*
X11013125Y-2718750D01*
X12918125Y-2678750D02*
X12958125Y-2718750D01*
X12958125Y-2678750D02*
X12918125Y-2718750D01*
X15299375Y-2678750D02*
X15339375Y-2718750D01*
X15339375Y-2678750D02*
X15299375Y-2718750D01*
X16728125Y-2678750D02*
X16768125Y-2718750D01*
X16768125Y-2678750D02*
X16728125Y-2718750D01*
X19109375Y-2678750D02*
X19149375Y-2718750D01*
X19149375Y-2678750D02*
X19109375Y-2718750D01*
X21157300Y-4837700D02*
X21197300Y-4877700D01*
X21197300Y-4837700D02*
X21157300Y-4877700D01*
X23168375Y-4811000D02*
X23208375Y-4851000D01*
X23208375Y-4811000D02*
X23168375Y-4851000D01*
X25544625Y-4816000D02*
X25584625Y-4856000D01*
X25584625Y-4816000D02*
X25544625Y-4856000D01*
X28164000Y-4816000D02*
X28204000Y-4856000D01*
X28204000Y-4816000D02*
X28164000Y-4856000D01*
X29251212Y-3136837D02*
X29291212Y-3176837D01*
X29291212Y-3136837D02*
X29251212Y-3176837D01*
D13*
X3204080Y-1841500D02*
G75*
G03*
X3204080Y-1841500I-49530J0D01*
G01*
X3204080Y-2603500D02*
G75*
G03*
X3204080Y-2603500I-49530J0D01*
G01*
X3204080Y-7556500D02*
G75*
G03*
X3204080Y-7556500I-49530J0D01*
G01*
X3204080Y-8318500D02*
G75*
G03*
X3204080Y-8318500I-49530J0D01*
G01*
X3442205Y-3746500D02*
G75*
G03*
X3442205Y-3746500I-49530J0D01*
G01*
X3442205Y-4508500D02*
G75*
G03*
X3442205Y-4508500I-49530J0D01*
G01*
X3918455Y-5651500D02*
G75*
G03*
X3918455Y-5651500I-49530J0D01*
G01*
X3918455Y-6413500D02*
G75*
G03*
X3918455Y-6413500I-49530J0D01*
G01*
X5109080Y-1841500D02*
G75*
G03*
X5109080Y-1841500I-49530J0D01*
G01*
X5109080Y-2603500D02*
G75*
G03*
X5109080Y-2603500I-49530J0D01*
G01*
X5109080Y-7556500D02*
G75*
G03*
X5109080Y-7556500I-49530J0D01*
G01*
X5109080Y-8318500D02*
G75*
G03*
X5109080Y-8318500I-49530J0D01*
G01*
X5585330Y-3746500D02*
G75*
G03*
X5585330Y-3746500I-49530J0D01*
G01*
X5585330Y-4508500D02*
G75*
G03*
X5585330Y-4508500I-49530J0D01*
G01*
X6537830Y-5651500D02*
G75*
G03*
X6537830Y-5651500I-49530J0D01*
G01*
X6537830Y-6413500D02*
G75*
G03*
X6537830Y-6413500I-49530J0D01*
G01*
X7014080Y-1841500D02*
G75*
G03*
X7014080Y-1841500I-49530J0D01*
G01*
X7014080Y-2603500D02*
G75*
G03*
X7014080Y-2603500I-49530J0D01*
G01*
X7014080Y-7556500D02*
G75*
G03*
X7014080Y-7556500I-49530J0D01*
G01*
X7014080Y-8318500D02*
G75*
G03*
X7014080Y-8318500I-49530J0D01*
G01*
X7490330Y-3746500D02*
G75*
G03*
X7490330Y-3746500I-49530J0D01*
G01*
X7490330Y-4508500D02*
G75*
G03*
X7490330Y-4508500I-49530J0D01*
G01*
X8442830Y-5651500D02*
G75*
G03*
X8442830Y-5651500I-49530J0D01*
G01*
X8442830Y-6413500D02*
G75*
G03*
X8442830Y-6413500I-49530J0D01*
G01*
X8919080Y-1841500D02*
G75*
G03*
X8919080Y-1841500I-49530J0D01*
G01*
X8919080Y-2603500D02*
G75*
G03*
X8919080Y-2603500I-49530J0D01*
G01*
X9395330Y-3746500D02*
G75*
G03*
X9395330Y-3746500I-49530J0D01*
G01*
X9395330Y-4508500D02*
G75*
G03*
X9395330Y-4508500I-49530J0D01*
G01*
X10347830Y-5651500D02*
G75*
G03*
X10347830Y-5651500I-49530J0D01*
G01*
X10347830Y-6413500D02*
G75*
G03*
X10347830Y-6413500I-49530J0D01*
G01*
X10585955Y-7556500D02*
G75*
G03*
X10585955Y-7556500I-49530J0D01*
G01*
X10585955Y-8318500D02*
G75*
G03*
X10585955Y-8318500I-49530J0D01*
G01*
X10824080Y-1841500D02*
G75*
G03*
X10824080Y-1841500I-49530J0D01*
G01*
X10824080Y-2603500D02*
G75*
G03*
X10824080Y-2603500I-49530J0D01*
G01*
X11300330Y-3746500D02*
G75*
G03*
X11300330Y-3746500I-49530J0D01*
G01*
X11300330Y-4508500D02*
G75*
G03*
X11300330Y-4508500I-49530J0D01*
G01*
X12252830Y-5651500D02*
G75*
G03*
X12252830Y-5651500I-49530J0D01*
G01*
X12252830Y-6413500D02*
G75*
G03*
X12252830Y-6413500I-49530J0D01*
G01*
X12729080Y-1841500D02*
G75*
G03*
X12729080Y-1841500I-49530J0D01*
G01*
X12729080Y-2603500D02*
G75*
G03*
X12729080Y-2603500I-49530J0D01*
G01*
X13205330Y-3746500D02*
G75*
G03*
X13205330Y-3746500I-49530J0D01*
G01*
X13205330Y-4508500D02*
G75*
G03*
X13205330Y-4508500I-49530J0D01*
G01*
X14157830Y-5651500D02*
G75*
G03*
X14157830Y-5651500I-49530J0D01*
G01*
X14157830Y-6413500D02*
G75*
G03*
X14157830Y-6413500I-49530J0D01*
G01*
X14634080Y-1841500D02*
G75*
G03*
X14634080Y-1841500I-49530J0D01*
G01*
X14634080Y-2603500D02*
G75*
G03*
X14634080Y-2603500I-49530J0D01*
G01*
X15110330Y-3746500D02*
G75*
G03*
X15110330Y-3746500I-49530J0D01*
G01*
X15110330Y-4508500D02*
G75*
G03*
X15110330Y-4508500I-49530J0D01*
G01*
X15348455Y-7556500D02*
G75*
G03*
X15348455Y-7556500I-49530J0D01*
G01*
X15348455Y-8318500D02*
G75*
G03*
X15348455Y-8318500I-49530J0D01*
G01*
X16062830Y-5651500D02*
G75*
G03*
X16062830Y-5651500I-49530J0D01*
G01*
X16062830Y-6413500D02*
G75*
G03*
X16062830Y-6413500I-49530J0D01*
G01*
X16539080Y-1841500D02*
G75*
G03*
X16539080Y-1841500I-49530J0D01*
G01*
X16539080Y-2603500D02*
G75*
G03*
X16539080Y-2603500I-49530J0D01*
G01*
X17015330Y-3746500D02*
G75*
G03*
X17015330Y-3746500I-49530J0D01*
G01*
X17015330Y-4508500D02*
G75*
G03*
X17015330Y-4508500I-49530J0D01*
G01*
X17967830Y-5651500D02*
G75*
G03*
X17967830Y-5651500I-49530J0D01*
G01*
X17967830Y-6413500D02*
G75*
G03*
X17967830Y-6413500I-49530J0D01*
G01*
X18444080Y-1841500D02*
G75*
G03*
X18444080Y-1841500I-49530J0D01*
G01*
X18444080Y-2603500D02*
G75*
G03*
X18444080Y-2603500I-49530J0D01*
G01*
X18444080Y-7556500D02*
G75*
G03*
X18444080Y-7556500I-49530J0D01*
G01*
X18444080Y-8318500D02*
G75*
G03*
X18444080Y-8318500I-49530J0D01*
G01*
X18920330Y-3746500D02*
G75*
G03*
X18920330Y-3746500I-49530J0D01*
G01*
X18920330Y-4508500D02*
G75*
G03*
X18920330Y-4508500I-49530J0D01*
G01*
X19872830Y-5651500D02*
G75*
G03*
X19872830Y-5651500I-49530J0D01*
G01*
X19872830Y-6413500D02*
G75*
G03*
X19872830Y-6413500I-49530J0D01*
G01*
X20349080Y-1841500D02*
G75*
G03*
X20349080Y-1841500I-49530J0D01*
G01*
X20349080Y-2603500D02*
G75*
G03*
X20349080Y-2603500I-49530J0D01*
G01*
X20349080Y-7556500D02*
G75*
G03*
X20349080Y-7556500I-49530J0D01*
G01*
X20349080Y-8318500D02*
G75*
G03*
X20349080Y-8318500I-49530J0D01*
G01*
X20825330Y-3746500D02*
G75*
G03*
X20825330Y-3746500I-49530J0D01*
G01*
X20825330Y-4508500D02*
G75*
G03*
X20825330Y-4508500I-49530J0D01*
G01*
X21777830Y-5651500D02*
G75*
G03*
X21777830Y-5651500I-49530J0D01*
G01*
X21777830Y-6413500D02*
G75*
G03*
X21777830Y-6413500I-49530J0D01*
G01*
X22254080Y-1841500D02*
G75*
G03*
X22254080Y-1841500I-49530J0D01*
G01*
X22254080Y-2603500D02*
G75*
G03*
X22254080Y-2603500I-49530J0D01*
G01*
X22254080Y-7556500D02*
G75*
G03*
X22254080Y-7556500I-49530J0D01*
G01*
X22254080Y-8318500D02*
G75*
G03*
X22254080Y-8318500I-49530J0D01*
G01*
X22730330Y-3746500D02*
G75*
G03*
X22730330Y-3746500I-49530J0D01*
G01*
X22730330Y-4508500D02*
G75*
G03*
X22730330Y-4508500I-49530J0D01*
G01*
X23682830Y-5651500D02*
G75*
G03*
X23682830Y-5651500I-49530J0D01*
G01*
X23682830Y-6413500D02*
G75*
G03*
X23682830Y-6413500I-49530J0D01*
G01*
X24159080Y-1841500D02*
G75*
G03*
X24159080Y-1841500I-49530J0D01*
G01*
X24159080Y-2603500D02*
G75*
G03*
X24159080Y-2603500I-49530J0D01*
G01*
X24159080Y-7556500D02*
G75*
G03*
X24159080Y-7556500I-49530J0D01*
G01*
X24159080Y-8318500D02*
G75*
G03*
X24159080Y-8318500I-49530J0D01*
G01*
X24635330Y-3746500D02*
G75*
G03*
X24635330Y-3746500I-49530J0D01*
G01*
X24635330Y-4508500D02*
G75*
G03*
X24635330Y-4508500I-49530J0D01*
G01*
X25825955Y-5651500D02*
G75*
G03*
X25825955Y-5651500I-49530J0D01*
G01*
X25825955Y-6413500D02*
G75*
G03*
X25825955Y-6413500I-49530J0D01*
G01*
X26064080Y-1841500D02*
G75*
G03*
X26064080Y-1841500I-49530J0D01*
G01*
X26064080Y-2603500D02*
G75*
G03*
X26064080Y-2603500I-49530J0D01*
G01*
X26064080Y-7556500D02*
G75*
G03*
X26064080Y-7556500I-49530J0D01*
G01*
X26064080Y-8318500D02*
G75*
G03*
X26064080Y-8318500I-49530J0D01*
G01*
X27254705Y-3746500D02*
G75*
G03*
X27254705Y-3746500I-49530J0D01*
G01*
X27254705Y-4508500D02*
G75*
G03*
X27254705Y-4508500I-49530J0D01*
G01*
X27969080Y-1841500D02*
G75*
G03*
X27969080Y-1841500I-49530J0D01*
G01*
X27969080Y-2603500D02*
G75*
G03*
X27969080Y-2603500I-49530J0D01*
G01*
X27969080Y-5651500D02*
G75*
G03*
X27969080Y-5651500I-49530J0D01*
G01*
X27969080Y-6413500D02*
G75*
G03*
X27969080Y-6413500I-49530J0D01*
G01*
X27969080Y-7556500D02*
G75*
G03*
X27969080Y-7556500I-49530J0D01*
G01*
X27969080Y-8318500D02*
G75*
G03*
X27969080Y-8318500I-49530J0D01*
G01*
X29874080Y-1841500D02*
G75*
G03*
X29874080Y-1841500I-49530J0D01*
G01*
X29874080Y-2603500D02*
G75*
G03*
X29874080Y-2603500I-49530J0D01*
G01*
X29874080Y-3746500D02*
G75*
G03*
X29874080Y-3746500I-49530J0D01*
G01*
X29874080Y-4508500D02*
G75*
G03*
X29874080Y-4508500I-49530J0D01*
G01*
X29874080Y-5651500D02*
G75*
G03*
X29874080Y-5651500I-49530J0D01*
G01*
X29874080Y-6413500D02*
G75*
G03*
X29874080Y-6413500I-49530J0D01*
G01*
X29874080Y-7556500D02*
G75*
G03*
X29874080Y-7556500I-49530J0D01*
G01*
X29874080Y-8318500D02*
G75*
G03*
X29874080Y-8318500I-49530J0D01*
G01*
D14*
X2113800Y-3043800D02*
X2113800Y-3153800D01*
X2058800Y-3098800D02*
X2168800Y-3098800D01*
X2113800Y-5101200D02*
X2113800Y-5211200D01*
X2058800Y-5156200D02*
X2168800Y-5156200D01*
X2367800Y-3043800D02*
X2367800Y-3153800D01*
X2312800Y-3098800D02*
X2422800Y-3098800D01*
X2367800Y-5101200D02*
X2367800Y-5211200D01*
X2312800Y-5156200D02*
X2422800Y-5156200D01*
X2621800Y-3043800D02*
X2621800Y-3153800D01*
X2566800Y-3098800D02*
X2676800Y-3098800D01*
X2621800Y-5101200D02*
X2621800Y-5211200D01*
X2566800Y-5156200D02*
X2676800Y-5156200D01*
X2875800Y-3043800D02*
X2875800Y-3153800D01*
X2820800Y-3098800D02*
X2930800Y-3098800D01*
X2875800Y-5101200D02*
X2875800Y-5211200D01*
X2820800Y-5156200D02*
X2930800Y-5156200D01*
X3129800Y-3043800D02*
X3129800Y-3153800D01*
X3074800Y-3098800D02*
X3184800Y-3098800D01*
X3129800Y-5101200D02*
X3129800Y-5211200D01*
X3074800Y-5156200D02*
X3184800Y-5156200D01*
X3383800Y-3043800D02*
X3383800Y-3153800D01*
X3328800Y-3098800D02*
X3438800Y-3098800D01*
X3383800Y-5101200D02*
X3383800Y-5211200D01*
X3328800Y-5156200D02*
X3438800Y-5156200D01*
X3637800Y-3043800D02*
X3637800Y-3153800D01*
X3582800Y-3098800D02*
X3692800Y-3098800D01*
X3637800Y-5101200D02*
X3637800Y-5211200D01*
X3582800Y-5156200D02*
X3692800Y-5156200D01*
X3891800Y-3043800D02*
X3891800Y-3153800D01*
X3836800Y-3098800D02*
X3946800Y-3098800D01*
X3891800Y-5101200D02*
X3891800Y-5211200D01*
X3836800Y-5156200D02*
X3946800Y-5156200D01*
X4145800Y-3043800D02*
X4145800Y-3153800D01*
X4090800Y-3098800D02*
X4200800Y-3098800D01*
X4145800Y-5101200D02*
X4145800Y-5211200D01*
X4090800Y-5156200D02*
X4200800Y-5156200D01*
X4399800Y-3043800D02*
X4399800Y-3153800D01*
X4344800Y-3098800D02*
X4454800Y-3098800D01*
X4399800Y-5101200D02*
X4399800Y-5211200D01*
X4344800Y-5156200D02*
X4454800Y-5156200D01*
X4653800Y-3043800D02*
X4653800Y-3153800D01*
X4598800Y-3098800D02*
X4708800Y-3098800D01*
X4653800Y-5101200D02*
X4653800Y-5211200D01*
X4598800Y-5156200D02*
X4708800Y-5156200D01*
X4907800Y-3043800D02*
X4907800Y-3153800D01*
X4852800Y-3098800D02*
X4962800Y-3098800D01*
X4907800Y-5101200D02*
X4907800Y-5211200D01*
X4852800Y-5156200D02*
X4962800Y-5156200D01*
D11*
X1363869Y-9364226D02*
X1363869Y-9164226D01*
X1411488Y-9164226D01*
X1440059Y-9173750D01*
X1459107Y-9192798D01*
X1468631Y-9211845D01*
X1478155Y-9249940D01*
X1478155Y-9278512D01*
X1468631Y-9316607D01*
X1459107Y-9335655D01*
X1440059Y-9354702D01*
X1411488Y-9364226D01*
X1363869Y-9364226D01*
X1563869Y-9364226D02*
X1563869Y-9230893D01*
X1563869Y-9268988D02*
X1573393Y-9249940D01*
X1582917Y-9240417D01*
X1601964Y-9230893D01*
X1621012Y-9230893D01*
X1687678Y-9364226D02*
X1687678Y-9230893D01*
X1687678Y-9164226D02*
X1678155Y-9173750D01*
X1687678Y-9183274D01*
X1697202Y-9173750D01*
X1687678Y-9164226D01*
X1687678Y-9183274D01*
X1811488Y-9364226D02*
X1792440Y-9354702D01*
X1782917Y-9335655D01*
X1782917Y-9164226D01*
X1916250Y-9364226D02*
X1897202Y-9354702D01*
X1887678Y-9335655D01*
X1887678Y-9164226D01*
X2144821Y-9364226D02*
X2144821Y-9164226D01*
X2211488Y-9307083D01*
X2278155Y-9164226D01*
X2278155Y-9364226D01*
X2459107Y-9364226D02*
X2459107Y-9259464D01*
X2449583Y-9240417D01*
X2430536Y-9230893D01*
X2392440Y-9230893D01*
X2373393Y-9240417D01*
X2459107Y-9354702D02*
X2440060Y-9364226D01*
X2392440Y-9364226D01*
X2373393Y-9354702D01*
X2363869Y-9335655D01*
X2363869Y-9316607D01*
X2373393Y-9297560D01*
X2392440Y-9288036D01*
X2440060Y-9288036D01*
X2459107Y-9278512D01*
X2554345Y-9230893D02*
X2554345Y-9430893D01*
X2554345Y-9240417D02*
X2573393Y-9230893D01*
X2611488Y-9230893D01*
X2630536Y-9240417D01*
X2640060Y-9249940D01*
X2649583Y-9268988D01*
X2649583Y-9326131D01*
X2640060Y-9345179D01*
X2630536Y-9354702D01*
X2611488Y-9364226D01*
X2573393Y-9364226D01*
X2554345Y-9354702D01*
X2735298Y-9345179D02*
X2744821Y-9354702D01*
X2735298Y-9364226D01*
X2725774Y-9354702D01*
X2735298Y-9345179D01*
X2735298Y-9364226D01*
X2735298Y-9240417D02*
X2744821Y-9249940D01*
X2735298Y-9259464D01*
X2725774Y-9249940D01*
X2735298Y-9240417D01*
X2735298Y-9259464D01*
D12*
X1066250Y-9673750D02*
X1106250Y-9713750D01*
X1106250Y-9673750D02*
X1066250Y-9713750D01*
D11*
X1401964Y-9584226D02*
X1421012Y-9584226D01*
X1440059Y-9593750D01*
X1449583Y-9603274D01*
X1459107Y-9622321D01*
X1468631Y-9660417D01*
X1468631Y-9708036D01*
X1459107Y-9746131D01*
X1449583Y-9765179D01*
X1440059Y-9774702D01*
X1421012Y-9784226D01*
X1401964Y-9784226D01*
X1382917Y-9774702D01*
X1373393Y-9765179D01*
X1363869Y-9746131D01*
X1354345Y-9708036D01*
X1354345Y-9660417D01*
X1363869Y-9622321D01*
X1373393Y-9603274D01*
X1382917Y-9593750D01*
X1401964Y-9584226D01*
X1554345Y-9765179D02*
X1563869Y-9774702D01*
X1554345Y-9784226D01*
X1544821Y-9774702D01*
X1554345Y-9765179D01*
X1554345Y-9784226D01*
X1735298Y-9650893D02*
X1735298Y-9784226D01*
X1687678Y-9574702D02*
X1640059Y-9717560D01*
X1763869Y-9717560D01*
X1878155Y-9584226D02*
X1897202Y-9584226D01*
X1916250Y-9593750D01*
X1925774Y-9603274D01*
X1935298Y-9622321D01*
X1944821Y-9660417D01*
X1944821Y-9708036D01*
X1935298Y-9746131D01*
X1925774Y-9765179D01*
X1916250Y-9774702D01*
X1897202Y-9784226D01*
X1878155Y-9784226D01*
X1859107Y-9774702D01*
X1849583Y-9765179D01*
X1840059Y-9746131D01*
X1830536Y-9708036D01*
X1830536Y-9660417D01*
X1840059Y-9622321D01*
X1849583Y-9603274D01*
X1859107Y-9593750D01*
X1878155Y-9584226D01*
X2068631Y-9584226D02*
X2087678Y-9584226D01*
X2106726Y-9593750D01*
X2116250Y-9603274D01*
X2125774Y-9622321D01*
X2135298Y-9660417D01*
X2135298Y-9708036D01*
X2125774Y-9746131D01*
X2116250Y-9765179D01*
X2106726Y-9774702D01*
X2087678Y-9784226D01*
X2068631Y-9784226D01*
X2049583Y-9774702D01*
X2040059Y-9765179D01*
X2030536Y-9746131D01*
X2021012Y-9708036D01*
X2021012Y-9660417D01*
X2030536Y-9622321D01*
X2040059Y-9603274D01*
X2049583Y-9593750D01*
X2068631Y-9584226D01*
X2221012Y-9784226D02*
X2221012Y-9650893D01*
X2221012Y-9669940D02*
X2230536Y-9660417D01*
X2249583Y-9650893D01*
X2278155Y-9650893D01*
X2297202Y-9660417D01*
X2306726Y-9679464D01*
X2306726Y-9784226D01*
X2306726Y-9679464D02*
X2316250Y-9660417D01*
X2335298Y-9650893D01*
X2363869Y-9650893D01*
X2382917Y-9660417D01*
X2392440Y-9679464D01*
X2392440Y-9784226D01*
X2487679Y-9784226D02*
X2487679Y-9650893D01*
X2487679Y-9669940D02*
X2497202Y-9660417D01*
X2516250Y-9650893D01*
X2544821Y-9650893D01*
X2563869Y-9660417D01*
X2573393Y-9679464D01*
X2573393Y-9784226D01*
X2573393Y-9679464D02*
X2582917Y-9660417D01*
X2601964Y-9650893D01*
X2630536Y-9650893D01*
X2649583Y-9660417D01*
X2659107Y-9679464D01*
X2659107Y-9784226D01*
X3049583Y-9574702D02*
X2878155Y-9831845D01*
X3306726Y-9584226D02*
X3325774Y-9584226D01*
X3344821Y-9593750D01*
X3354345Y-9603274D01*
X3363869Y-9622321D01*
X3373393Y-9660417D01*
X3373393Y-9708036D01*
X3363869Y-9746131D01*
X3354345Y-9765179D01*
X3344821Y-9774702D01*
X3325774Y-9784226D01*
X3306726Y-9784226D01*
X3287678Y-9774702D01*
X3278155Y-9765179D01*
X3268631Y-9746131D01*
X3259107Y-9708036D01*
X3259107Y-9660417D01*
X3268631Y-9622321D01*
X3278155Y-9603274D01*
X3287678Y-9593750D01*
X3306726Y-9584226D01*
X3459107Y-9765179D02*
X3468631Y-9774702D01*
X3459107Y-9784226D01*
X3449583Y-9774702D01*
X3459107Y-9765179D01*
X3459107Y-9784226D01*
X3592440Y-9584226D02*
X3611488Y-9584226D01*
X3630536Y-9593750D01*
X3640059Y-9603274D01*
X3649583Y-9622321D01*
X3659107Y-9660417D01*
X3659107Y-9708036D01*
X3649583Y-9746131D01*
X3640059Y-9765179D01*
X3630536Y-9774702D01*
X3611488Y-9784226D01*
X3592440Y-9784226D01*
X3573393Y-9774702D01*
X3563869Y-9765179D01*
X3554345Y-9746131D01*
X3544821Y-9708036D01*
X3544821Y-9660417D01*
X3554345Y-9622321D01*
X3563869Y-9603274D01*
X3573393Y-9593750D01*
X3592440Y-9584226D01*
X3849583Y-9784226D02*
X3735298Y-9784226D01*
X3792440Y-9784226D02*
X3792440Y-9584226D01*
X3773393Y-9612798D01*
X3754345Y-9631845D01*
X3735298Y-9641369D01*
X4030536Y-9584226D02*
X3935298Y-9584226D01*
X3925774Y-9679464D01*
X3935298Y-9669940D01*
X3954345Y-9660417D01*
X4001964Y-9660417D01*
X4021012Y-9669940D01*
X4030536Y-9679464D01*
X4040059Y-9698512D01*
X4040059Y-9746131D01*
X4030536Y-9765179D01*
X4021012Y-9774702D01*
X4001964Y-9784226D01*
X3954345Y-9784226D01*
X3935298Y-9774702D01*
X3925774Y-9765179D01*
X4106726Y-9584226D02*
X4240060Y-9584226D01*
X4154345Y-9784226D01*
X4306726Y-9584226D02*
X4306726Y-9622321D01*
X4382917Y-9584226D02*
X4382917Y-9622321D01*
X4678155Y-9860417D02*
X4668631Y-9850893D01*
X4649583Y-9822321D01*
X4640060Y-9803274D01*
X4630536Y-9774702D01*
X4621012Y-9727083D01*
X4621012Y-9688988D01*
X4630536Y-9641369D01*
X4640060Y-9612798D01*
X4649583Y-9593750D01*
X4668631Y-9565179D01*
X4678155Y-9555655D01*
X4859107Y-9784226D02*
X4744821Y-9784226D01*
X4801964Y-9784226D02*
X4801964Y-9584226D01*
X4782917Y-9612798D01*
X4763869Y-9631845D01*
X4744821Y-9641369D01*
X4925774Y-9584226D02*
X5049583Y-9584226D01*
X4982917Y-9660417D01*
X5011488Y-9660417D01*
X5030536Y-9669940D01*
X5040060Y-9679464D01*
X5049583Y-9698512D01*
X5049583Y-9746131D01*
X5040060Y-9765179D01*
X5030536Y-9774702D01*
X5011488Y-9784226D01*
X4954345Y-9784226D01*
X4935298Y-9774702D01*
X4925774Y-9765179D01*
X5287679Y-9784226D02*
X5287679Y-9584226D01*
X5373393Y-9784226D02*
X5373393Y-9679464D01*
X5363869Y-9660417D01*
X5344821Y-9650893D01*
X5316250Y-9650893D01*
X5297202Y-9660417D01*
X5287679Y-9669940D01*
X5497202Y-9784226D02*
X5478155Y-9774702D01*
X5468631Y-9765179D01*
X5459107Y-9746131D01*
X5459107Y-9688988D01*
X5468631Y-9669940D01*
X5478155Y-9660417D01*
X5497202Y-9650893D01*
X5525774Y-9650893D01*
X5544821Y-9660417D01*
X5554345Y-9669940D01*
X5563869Y-9688988D01*
X5563869Y-9746131D01*
X5554345Y-9765179D01*
X5544821Y-9774702D01*
X5525774Y-9784226D01*
X5497202Y-9784226D01*
X5678155Y-9784226D02*
X5659107Y-9774702D01*
X5649583Y-9755655D01*
X5649583Y-9584226D01*
X5830536Y-9774702D02*
X5811488Y-9784226D01*
X5773393Y-9784226D01*
X5754345Y-9774702D01*
X5744821Y-9755655D01*
X5744821Y-9679464D01*
X5754345Y-9660417D01*
X5773393Y-9650893D01*
X5811488Y-9650893D01*
X5830536Y-9660417D01*
X5840059Y-9679464D01*
X5840059Y-9698512D01*
X5744821Y-9717560D01*
X5916250Y-9774702D02*
X5935298Y-9784226D01*
X5973393Y-9784226D01*
X5992440Y-9774702D01*
X6001964Y-9755655D01*
X6001964Y-9746131D01*
X5992440Y-9727083D01*
X5973393Y-9717560D01*
X5944821Y-9717560D01*
X5925774Y-9708036D01*
X5916250Y-9688988D01*
X5916250Y-9679464D01*
X5925774Y-9660417D01*
X5944821Y-9650893D01*
X5973393Y-9650893D01*
X5992440Y-9660417D01*
X6068631Y-9860417D02*
X6078155Y-9850893D01*
X6097202Y-9822321D01*
X6106726Y-9803274D01*
X6116250Y-9774702D01*
X6125774Y-9727083D01*
X6125774Y-9688988D01*
X6116250Y-9641369D01*
X6106726Y-9612798D01*
X6097202Y-9593750D01*
X6078155Y-9565179D01*
X6068631Y-9555655D01*
D13*
X1106250Y-9957750D02*
G75*
G03*
X1106250Y-9957750I-49530J0D01*
G01*
D11*
X1401964Y-9848226D02*
X1421012Y-9848226D01*
X1440059Y-9857750D01*
X1449583Y-9867274D01*
X1459107Y-9886321D01*
X1468631Y-9924417D01*
X1468631Y-9972036D01*
X1459107Y-10010131D01*
X1449583Y-10029179D01*
X1440059Y-10038702D01*
X1421012Y-10048226D01*
X1401964Y-10048226D01*
X1382917Y-10038702D01*
X1373393Y-10029179D01*
X1363869Y-10010131D01*
X1354345Y-9972036D01*
X1354345Y-9924417D01*
X1363869Y-9886321D01*
X1373393Y-9867274D01*
X1382917Y-9857750D01*
X1401964Y-9848226D01*
X1554345Y-10029179D02*
X1563869Y-10038702D01*
X1554345Y-10048226D01*
X1544821Y-10038702D01*
X1554345Y-10029179D01*
X1554345Y-10048226D01*
X1659107Y-10048226D02*
X1697202Y-10048226D01*
X1716250Y-10038702D01*
X1725774Y-10029179D01*
X1744821Y-10000607D01*
X1754345Y-9962512D01*
X1754345Y-9886321D01*
X1744821Y-9867274D01*
X1735298Y-9857750D01*
X1716250Y-9848226D01*
X1678155Y-9848226D01*
X1659107Y-9857750D01*
X1649583Y-9867274D01*
X1640059Y-9886321D01*
X1640059Y-9933940D01*
X1649583Y-9952988D01*
X1659107Y-9962512D01*
X1678155Y-9972036D01*
X1716250Y-9972036D01*
X1735298Y-9962512D01*
X1744821Y-9952988D01*
X1754345Y-9933940D01*
X1849583Y-10048226D02*
X1887678Y-10048226D01*
X1906726Y-10038702D01*
X1916250Y-10029179D01*
X1935298Y-10000607D01*
X1944821Y-9962512D01*
X1944821Y-9886321D01*
X1935298Y-9867274D01*
X1925774Y-9857750D01*
X1906726Y-9848226D01*
X1868631Y-9848226D01*
X1849583Y-9857750D01*
X1840059Y-9867274D01*
X1830536Y-9886321D01*
X1830536Y-9933940D01*
X1840059Y-9952988D01*
X1849583Y-9962512D01*
X1868631Y-9972036D01*
X1906726Y-9972036D01*
X1925774Y-9962512D01*
X1935298Y-9952988D01*
X1944821Y-9933940D01*
X2135298Y-10048226D02*
X2021012Y-10048226D01*
X2078155Y-10048226D02*
X2078155Y-9848226D01*
X2059107Y-9876798D01*
X2040059Y-9895845D01*
X2021012Y-9905369D01*
X2221012Y-10048226D02*
X2221012Y-9914893D01*
X2221012Y-9933940D02*
X2230536Y-9924417D01*
X2249583Y-9914893D01*
X2278155Y-9914893D01*
X2297202Y-9924417D01*
X2306726Y-9943464D01*
X2306726Y-10048226D01*
X2306726Y-9943464D02*
X2316250Y-9924417D01*
X2335298Y-9914893D01*
X2363869Y-9914893D01*
X2382917Y-9924417D01*
X2392440Y-9943464D01*
X2392440Y-10048226D01*
X2487679Y-10048226D02*
X2487679Y-9914893D01*
X2487679Y-9933940D02*
X2497202Y-9924417D01*
X2516250Y-9914893D01*
X2544821Y-9914893D01*
X2563869Y-9924417D01*
X2573393Y-9943464D01*
X2573393Y-10048226D01*
X2573393Y-9943464D02*
X2582917Y-9924417D01*
X2601964Y-9914893D01*
X2630536Y-9914893D01*
X2649583Y-9924417D01*
X2659107Y-9943464D01*
X2659107Y-10048226D01*
X3049583Y-9838702D02*
X2878155Y-10095845D01*
X3306726Y-9848226D02*
X3325774Y-9848226D01*
X3344821Y-9857750D01*
X3354345Y-9867274D01*
X3363869Y-9886321D01*
X3373393Y-9924417D01*
X3373393Y-9972036D01*
X3363869Y-10010131D01*
X3354345Y-10029179D01*
X3344821Y-10038702D01*
X3325774Y-10048226D01*
X3306726Y-10048226D01*
X3287678Y-10038702D01*
X3278155Y-10029179D01*
X3268631Y-10010131D01*
X3259107Y-9972036D01*
X3259107Y-9924417D01*
X3268631Y-9886321D01*
X3278155Y-9867274D01*
X3287678Y-9857750D01*
X3306726Y-9848226D01*
X3459107Y-10029179D02*
X3468631Y-10038702D01*
X3459107Y-10048226D01*
X3449583Y-10038702D01*
X3459107Y-10029179D01*
X3459107Y-10048226D01*
X3592440Y-9848226D02*
X3611488Y-9848226D01*
X3630536Y-9857750D01*
X3640059Y-9867274D01*
X3649583Y-9886321D01*
X3659107Y-9924417D01*
X3659107Y-9972036D01*
X3649583Y-10010131D01*
X3640059Y-10029179D01*
X3630536Y-10038702D01*
X3611488Y-10048226D01*
X3592440Y-10048226D01*
X3573393Y-10038702D01*
X3563869Y-10029179D01*
X3554345Y-10010131D01*
X3544821Y-9972036D01*
X3544821Y-9924417D01*
X3554345Y-9886321D01*
X3563869Y-9867274D01*
X3573393Y-9857750D01*
X3592440Y-9848226D01*
X3725774Y-9848226D02*
X3849583Y-9848226D01*
X3782917Y-9924417D01*
X3811488Y-9924417D01*
X3830536Y-9933940D01*
X3840059Y-9943464D01*
X3849583Y-9962512D01*
X3849583Y-10010131D01*
X3840059Y-10029179D01*
X3830536Y-10038702D01*
X3811488Y-10048226D01*
X3754345Y-10048226D01*
X3735298Y-10038702D01*
X3725774Y-10029179D01*
X3944821Y-10048226D02*
X3982917Y-10048226D01*
X4001964Y-10038702D01*
X4011488Y-10029179D01*
X4030536Y-10000607D01*
X4040059Y-9962512D01*
X4040059Y-9886321D01*
X4030536Y-9867274D01*
X4021012Y-9857750D01*
X4001964Y-9848226D01*
X3963869Y-9848226D01*
X3944821Y-9857750D01*
X3935298Y-9867274D01*
X3925774Y-9886321D01*
X3925774Y-9933940D01*
X3935298Y-9952988D01*
X3944821Y-9962512D01*
X3963869Y-9972036D01*
X4001964Y-9972036D01*
X4021012Y-9962512D01*
X4030536Y-9952988D01*
X4040059Y-9933940D01*
X4163869Y-9848226D02*
X4182917Y-9848226D01*
X4201964Y-9857750D01*
X4211488Y-9867274D01*
X4221012Y-9886321D01*
X4230536Y-9924417D01*
X4230536Y-9972036D01*
X4221012Y-10010131D01*
X4211488Y-10029179D01*
X4201964Y-10038702D01*
X4182917Y-10048226D01*
X4163869Y-10048226D01*
X4144821Y-10038702D01*
X4135298Y-10029179D01*
X4125774Y-10010131D01*
X4116250Y-9972036D01*
X4116250Y-9924417D01*
X4125774Y-9886321D01*
X4135298Y-9867274D01*
X4144821Y-9857750D01*
X4163869Y-9848226D01*
X4306726Y-9848226D02*
X4306726Y-9886321D01*
X4382917Y-9848226D02*
X4382917Y-9886321D01*
X4678155Y-10124417D02*
X4668631Y-10114893D01*
X4649583Y-10086321D01*
X4640060Y-10067274D01*
X4630536Y-10038702D01*
X4621012Y-9991083D01*
X4621012Y-9952988D01*
X4630536Y-9905369D01*
X4640060Y-9876798D01*
X4649583Y-9857750D01*
X4668631Y-9829179D01*
X4678155Y-9819655D01*
X4859107Y-10048226D02*
X4744821Y-10048226D01*
X4801964Y-10048226D02*
X4801964Y-9848226D01*
X4782917Y-9876798D01*
X4763869Y-9895845D01*
X4744821Y-9905369D01*
X5049583Y-10048226D02*
X4935298Y-10048226D01*
X4992440Y-10048226D02*
X4992440Y-9848226D01*
X4973393Y-9876798D01*
X4954345Y-9895845D01*
X4935298Y-9905369D01*
X5173393Y-9848226D02*
X5192440Y-9848226D01*
X5211488Y-9857750D01*
X5221012Y-9867274D01*
X5230536Y-9886321D01*
X5240060Y-9924417D01*
X5240060Y-9972036D01*
X5230536Y-10010131D01*
X5221012Y-10029179D01*
X5211488Y-10038702D01*
X5192440Y-10048226D01*
X5173393Y-10048226D01*
X5154345Y-10038702D01*
X5144821Y-10029179D01*
X5135298Y-10010131D01*
X5125774Y-9972036D01*
X5125774Y-9924417D01*
X5135298Y-9886321D01*
X5144821Y-9867274D01*
X5154345Y-9857750D01*
X5173393Y-9848226D01*
X5478155Y-10048226D02*
X5478155Y-9848226D01*
X5563869Y-10048226D02*
X5563869Y-9943464D01*
X5554345Y-9924417D01*
X5535298Y-9914893D01*
X5506726Y-9914893D01*
X5487679Y-9924417D01*
X5478155Y-9933940D01*
X5687678Y-10048226D02*
X5668631Y-10038702D01*
X5659107Y-10029179D01*
X5649583Y-10010131D01*
X5649583Y-9952988D01*
X5659107Y-9933940D01*
X5668631Y-9924417D01*
X5687678Y-9914893D01*
X5716250Y-9914893D01*
X5735298Y-9924417D01*
X5744821Y-9933940D01*
X5754345Y-9952988D01*
X5754345Y-10010131D01*
X5744821Y-10029179D01*
X5735298Y-10038702D01*
X5716250Y-10048226D01*
X5687678Y-10048226D01*
X5868631Y-10048226D02*
X5849583Y-10038702D01*
X5840059Y-10019655D01*
X5840059Y-9848226D01*
X6021012Y-10038702D02*
X6001964Y-10048226D01*
X5963869Y-10048226D01*
X5944821Y-10038702D01*
X5935298Y-10019655D01*
X5935298Y-9943464D01*
X5944821Y-9924417D01*
X5963869Y-9914893D01*
X6001964Y-9914893D01*
X6021012Y-9924417D01*
X6030536Y-9943464D01*
X6030536Y-9962512D01*
X5935298Y-9981560D01*
X6106726Y-10038702D02*
X6125774Y-10048226D01*
X6163869Y-10048226D01*
X6182917Y-10038702D01*
X6192440Y-10019655D01*
X6192440Y-10010131D01*
X6182917Y-9991083D01*
X6163869Y-9981560D01*
X6135298Y-9981560D01*
X6116250Y-9972036D01*
X6106726Y-9952988D01*
X6106726Y-9943464D01*
X6116250Y-9924417D01*
X6135298Y-9914893D01*
X6163869Y-9914893D01*
X6182917Y-9924417D01*
X6259107Y-10124417D02*
X6268631Y-10114893D01*
X6287678Y-10086321D01*
X6297202Y-10067274D01*
X6306726Y-10038702D01*
X6316250Y-9991083D01*
X6316250Y-9952988D01*
X6306726Y-9905369D01*
X6297202Y-9876798D01*
X6287678Y-9857750D01*
X6268631Y-9829179D01*
X6259107Y-9819655D01*
D14*
X1051250Y-10166750D02*
X1051250Y-10276750D01*
X996250Y-10221750D02*
X1106250Y-10221750D01*
D11*
X1468631Y-10312226D02*
X1354345Y-10312226D01*
X1411488Y-10312226D02*
X1411488Y-10112226D01*
X1392440Y-10140798D01*
X1373393Y-10159845D01*
X1354345Y-10169369D01*
X1554345Y-10293179D02*
X1563869Y-10302702D01*
X1554345Y-10312226D01*
X1544821Y-10302702D01*
X1554345Y-10293179D01*
X1554345Y-10312226D01*
X1754345Y-10312226D02*
X1640059Y-10312226D01*
X1697202Y-10312226D02*
X1697202Y-10112226D01*
X1678155Y-10140798D01*
X1659107Y-10159845D01*
X1640059Y-10169369D01*
X1878155Y-10112226D02*
X1897202Y-10112226D01*
X1916250Y-10121750D01*
X1925774Y-10131274D01*
X1935298Y-10150321D01*
X1944821Y-10188417D01*
X1944821Y-10236036D01*
X1935298Y-10274131D01*
X1925774Y-10293179D01*
X1916250Y-10302702D01*
X1897202Y-10312226D01*
X1878155Y-10312226D01*
X1859107Y-10302702D01*
X1849583Y-10293179D01*
X1840059Y-10274131D01*
X1830536Y-10236036D01*
X1830536Y-10188417D01*
X1840059Y-10150321D01*
X1849583Y-10131274D01*
X1859107Y-10121750D01*
X1878155Y-10112226D01*
X2068631Y-10112226D02*
X2087678Y-10112226D01*
X2106726Y-10121750D01*
X2116250Y-10131274D01*
X2125774Y-10150321D01*
X2135298Y-10188417D01*
X2135298Y-10236036D01*
X2125774Y-10274131D01*
X2116250Y-10293179D01*
X2106726Y-10302702D01*
X2087678Y-10312226D01*
X2068631Y-10312226D01*
X2049583Y-10302702D01*
X2040059Y-10293179D01*
X2030536Y-10274131D01*
X2021012Y-10236036D01*
X2021012Y-10188417D01*
X2030536Y-10150321D01*
X2040059Y-10131274D01*
X2049583Y-10121750D01*
X2068631Y-10112226D01*
X2221012Y-10312226D02*
X2221012Y-10178893D01*
X2221012Y-10197940D02*
X2230536Y-10188417D01*
X2249583Y-10178893D01*
X2278155Y-10178893D01*
X2297202Y-10188417D01*
X2306726Y-10207464D01*
X2306726Y-10312226D01*
X2306726Y-10207464D02*
X2316250Y-10188417D01*
X2335298Y-10178893D01*
X2363869Y-10178893D01*
X2382917Y-10188417D01*
X2392440Y-10207464D01*
X2392440Y-10312226D01*
X2487679Y-10312226D02*
X2487679Y-10178893D01*
X2487679Y-10197940D02*
X2497202Y-10188417D01*
X2516250Y-10178893D01*
X2544821Y-10178893D01*
X2563869Y-10188417D01*
X2573393Y-10207464D01*
X2573393Y-10312226D01*
X2573393Y-10207464D02*
X2582917Y-10188417D01*
X2601964Y-10178893D01*
X2630536Y-10178893D01*
X2649583Y-10188417D01*
X2659107Y-10207464D01*
X2659107Y-10312226D01*
X3049583Y-10102702D02*
X2878155Y-10359845D01*
X3306726Y-10112226D02*
X3325774Y-10112226D01*
X3344821Y-10121750D01*
X3354345Y-10131274D01*
X3363869Y-10150321D01*
X3373393Y-10188417D01*
X3373393Y-10236036D01*
X3363869Y-10274131D01*
X3354345Y-10293179D01*
X3344821Y-10302702D01*
X3325774Y-10312226D01*
X3306726Y-10312226D01*
X3287678Y-10302702D01*
X3278155Y-10293179D01*
X3268631Y-10274131D01*
X3259107Y-10236036D01*
X3259107Y-10188417D01*
X3268631Y-10150321D01*
X3278155Y-10131274D01*
X3287678Y-10121750D01*
X3306726Y-10112226D01*
X3459107Y-10293179D02*
X3468631Y-10302702D01*
X3459107Y-10312226D01*
X3449583Y-10302702D01*
X3459107Y-10293179D01*
X3459107Y-10312226D01*
X3592440Y-10112226D02*
X3611488Y-10112226D01*
X3630536Y-10121750D01*
X3640059Y-10131274D01*
X3649583Y-10150321D01*
X3659107Y-10188417D01*
X3659107Y-10236036D01*
X3649583Y-10274131D01*
X3640059Y-10293179D01*
X3630536Y-10302702D01*
X3611488Y-10312226D01*
X3592440Y-10312226D01*
X3573393Y-10302702D01*
X3563869Y-10293179D01*
X3554345Y-10274131D01*
X3544821Y-10236036D01*
X3544821Y-10188417D01*
X3554345Y-10150321D01*
X3563869Y-10131274D01*
X3573393Y-10121750D01*
X3592440Y-10112226D01*
X3830536Y-10178893D02*
X3830536Y-10312226D01*
X3782917Y-10102702D02*
X3735298Y-10245560D01*
X3859107Y-10245560D01*
X3916250Y-10112226D02*
X4040059Y-10112226D01*
X3973393Y-10188417D01*
X4001964Y-10188417D01*
X4021012Y-10197940D01*
X4030536Y-10207464D01*
X4040059Y-10226512D01*
X4040059Y-10274131D01*
X4030536Y-10293179D01*
X4021012Y-10302702D01*
X4001964Y-10312226D01*
X3944821Y-10312226D01*
X3925774Y-10302702D01*
X3916250Y-10293179D01*
X4106726Y-10112226D02*
X4230536Y-10112226D01*
X4163869Y-10188417D01*
X4192440Y-10188417D01*
X4211488Y-10197940D01*
X4221012Y-10207464D01*
X4230536Y-10226512D01*
X4230536Y-10274131D01*
X4221012Y-10293179D01*
X4211488Y-10302702D01*
X4192440Y-10312226D01*
X4135298Y-10312226D01*
X4116250Y-10302702D01*
X4106726Y-10293179D01*
X4306726Y-10112226D02*
X4306726Y-10150321D01*
X4382917Y-10112226D02*
X4382917Y-10150321D01*
X4678155Y-10388417D02*
X4668631Y-10378893D01*
X4649583Y-10350321D01*
X4640060Y-10331274D01*
X4630536Y-10302702D01*
X4621012Y-10255083D01*
X4621012Y-10216988D01*
X4630536Y-10169369D01*
X4640060Y-10140798D01*
X4649583Y-10121750D01*
X4668631Y-10093179D01*
X4678155Y-10083655D01*
X4744821Y-10131274D02*
X4754345Y-10121750D01*
X4773393Y-10112226D01*
X4821012Y-10112226D01*
X4840060Y-10121750D01*
X4849583Y-10131274D01*
X4859107Y-10150321D01*
X4859107Y-10169369D01*
X4849583Y-10197940D01*
X4735298Y-10312226D01*
X4859107Y-10312226D01*
X5030536Y-10178893D02*
X5030536Y-10312226D01*
X4982917Y-10102702D02*
X4935298Y-10245560D01*
X5059107Y-10245560D01*
X5287679Y-10312226D02*
X5287679Y-10112226D01*
X5373393Y-10312226D02*
X5373393Y-10207464D01*
X5363869Y-10188417D01*
X5344821Y-10178893D01*
X5316250Y-10178893D01*
X5297202Y-10188417D01*
X5287679Y-10197940D01*
X5497202Y-10312226D02*
X5478155Y-10302702D01*
X5468631Y-10293179D01*
X5459107Y-10274131D01*
X5459107Y-10216988D01*
X5468631Y-10197940D01*
X5478155Y-10188417D01*
X5497202Y-10178893D01*
X5525774Y-10178893D01*
X5544821Y-10188417D01*
X5554345Y-10197940D01*
X5563869Y-10216988D01*
X5563869Y-10274131D01*
X5554345Y-10293179D01*
X5544821Y-10302702D01*
X5525774Y-10312226D01*
X5497202Y-10312226D01*
X5678155Y-10312226D02*
X5659107Y-10302702D01*
X5649583Y-10283655D01*
X5649583Y-10112226D01*
X5830536Y-10302702D02*
X5811488Y-10312226D01*
X5773393Y-10312226D01*
X5754345Y-10302702D01*
X5744821Y-10283655D01*
X5744821Y-10207464D01*
X5754345Y-10188417D01*
X5773393Y-10178893D01*
X5811488Y-10178893D01*
X5830536Y-10188417D01*
X5840059Y-10207464D01*
X5840059Y-10226512D01*
X5744821Y-10245560D01*
X5916250Y-10302702D02*
X5935298Y-10312226D01*
X5973393Y-10312226D01*
X5992440Y-10302702D01*
X6001964Y-10283655D01*
X6001964Y-10274131D01*
X5992440Y-10255083D01*
X5973393Y-10245560D01*
X5944821Y-10245560D01*
X5925774Y-10236036D01*
X5916250Y-10216988D01*
X5916250Y-10207464D01*
X5925774Y-10188417D01*
X5944821Y-10178893D01*
X5973393Y-10178893D01*
X5992440Y-10188417D01*
X6068631Y-10388417D02*
X6078155Y-10378893D01*
X6097202Y-10350321D01*
X6106726Y-10331274D01*
X6116250Y-10302702D01*
X6125774Y-10255083D01*
X6125774Y-10216988D01*
X6116250Y-10169369D01*
X6106726Y-10140798D01*
X6097202Y-10121750D01*
X6078155Y-10093179D01*
X6068631Y-10083655D01*
M02*
