%TF.GenerationSoftware,KiCad,Pcbnew,(6.0.10)*%
%TF.CreationDate,2023-01-15T11:01:46+05:00*%
%TF.ProjectId,key55,6b657935-352e-46b6-9963-61645f706362,rev?*%
%TF.SameCoordinates,Original*%
%TF.FileFunction,Paste,Bot*%
%TF.FilePolarity,Positive*%
%FSLAX46Y46*%
G04 Gerber Fmt 4.6, Leading zero omitted, Abs format (unit mm)*
G04 Created by KiCad (PCBNEW (6.0.10)) date 2023-01-15 11:01:46*
%MOMM*%
%LPD*%
G01*
G04 APERTURE LIST*
G04 Aperture macros list*
%AMRoundRect*
0 Rectangle with rounded corners*
0 $1 Rounding radius*
0 $2 $3 $4 $5 $6 $7 $8 $9 X,Y pos of 4 corners*
0 Add a 4 corners polygon primitive as box body*
4,1,4,$2,$3,$4,$5,$6,$7,$8,$9,$2,$3,0*
0 Add four circle primitives for the rounded corners*
1,1,$1+$1,$2,$3*
1,1,$1+$1,$4,$5*
1,1,$1+$1,$6,$7*
1,1,$1+$1,$8,$9*
0 Add four rect primitives between the rounded corners*
20,1,$1+$1,$2,$3,$4,$5,0*
20,1,$1+$1,$4,$5,$6,$7,0*
20,1,$1+$1,$6,$7,$8,$9,0*
20,1,$1+$1,$8,$9,$2,$3,0*%
G04 Aperture macros list end*
%ADD10RoundRect,0.250000X-1.025000X-1.000000X1.025000X-1.000000X1.025000X1.000000X-1.025000X1.000000X0*%
G04 APERTURE END LIST*
D10*
%TO.C,K44*%
X15140000Y-76835000D03*
X28067000Y-74295000D03*
%TD*%
%TO.C,K49*%
X167540000Y-76835000D03*
X180467000Y-74295000D03*
%TD*%
%TO.C,K1*%
X15140000Y-19685000D03*
X28067000Y-17145000D03*
%TD*%
%TO.C,K7*%
X129440000Y-19685000D03*
X142367000Y-17145000D03*
%TD*%
%TO.C,K10*%
X186590000Y-19685000D03*
X199517000Y-17145000D03*
%TD*%
%TO.C,K34*%
X105627500Y-57785000D03*
X118554500Y-55245000D03*
%TD*%
%TO.C,K11*%
X205640000Y-19685000D03*
X218567000Y-17145000D03*
%TD*%
%TO.C,K18*%
X58002500Y-38735000D03*
X70929500Y-36195000D03*
%TD*%
%TO.C,K54*%
X262790000Y-76835000D03*
X275717000Y-74295000D03*
%TD*%
%TO.C,K27*%
X229452500Y-38735000D03*
X242379500Y-36195000D03*
%TD*%
%TO.C,K22*%
X134202500Y-38735000D03*
X147129500Y-36195000D03*
%TD*%
%TO.C,K35*%
X124677500Y-57785000D03*
X137604500Y-55245000D03*
%TD*%
%TO.C,K9*%
X167540000Y-19685000D03*
X180467000Y-17145000D03*
%TD*%
%TO.C,K29*%
X281840000Y-38735000D03*
X294767000Y-36195000D03*
%TD*%
%TO.C,K39*%
X200877500Y-57785000D03*
X213804500Y-55245000D03*
%TD*%
%TO.C,K55*%
X281840000Y-76835000D03*
X294767000Y-74295000D03*
%TD*%
%TO.C,K6*%
X110390000Y-19685000D03*
X123317000Y-17145000D03*
%TD*%
%TO.C,K46*%
X53240000Y-76835000D03*
X66167000Y-74295000D03*
%TD*%
%TO.C,K50*%
X186590000Y-76835000D03*
X199517000Y-74295000D03*
%TD*%
%TO.C,K25*%
X191352500Y-38735000D03*
X204279500Y-36195000D03*
%TD*%
%TO.C,K8*%
X148490000Y-19685000D03*
X161417000Y-17145000D03*
%TD*%
%TO.C,K43*%
X281840000Y-57785000D03*
X294767000Y-55245000D03*
%TD*%
%TO.C,K16*%
X17521250Y-38735000D03*
X30448250Y-36195000D03*
%TD*%
%TO.C,K12*%
X224690000Y-19685000D03*
X237617000Y-17145000D03*
%TD*%
%TO.C,K15*%
X281840000Y-19685000D03*
X294767000Y-17145000D03*
%TD*%
%TO.C,K41*%
X241358750Y-57785000D03*
X254285750Y-55245000D03*
%TD*%
%TO.C,K52*%
X224690000Y-76835000D03*
X237617000Y-74295000D03*
%TD*%
%TO.C,K51*%
X205640000Y-76835000D03*
X218567000Y-74295000D03*
%TD*%
%TO.C,K32*%
X67527500Y-57785000D03*
X80454500Y-55245000D03*
%TD*%
%TO.C,K36*%
X143727500Y-57785000D03*
X156654500Y-55245000D03*
%TD*%
%TO.C,K28*%
X255646250Y-38735000D03*
X268573250Y-36195000D03*
%TD*%
%TO.C,K14*%
X262790000Y-19685000D03*
X275717000Y-17145000D03*
%TD*%
%TO.C,K26*%
X210402500Y-38735000D03*
X223329500Y-36195000D03*
%TD*%
%TO.C,K17*%
X38952500Y-38735000D03*
X51879500Y-36195000D03*
%TD*%
%TO.C,K13*%
X243740000Y-19685000D03*
X256667000Y-17145000D03*
%TD*%
%TO.C,K45*%
X34190000Y-76835000D03*
X47117000Y-74295000D03*
%TD*%
%TO.C,K20*%
X96102500Y-38735000D03*
X109029500Y-36195000D03*
%TD*%
%TO.C,K24*%
X172302500Y-38735000D03*
X185229500Y-36195000D03*
%TD*%
%TO.C,K48*%
X136583750Y-76835000D03*
X149510750Y-74295000D03*
%TD*%
%TO.C,K38*%
X181827500Y-57785000D03*
X194754500Y-55245000D03*
%TD*%
%TO.C,K4*%
X72290000Y-19685000D03*
X85217000Y-17145000D03*
%TD*%
%TO.C,K37*%
X162777500Y-57785000D03*
X175704500Y-55245000D03*
%TD*%
%TO.C,K2*%
X34190000Y-19685000D03*
X47117000Y-17145000D03*
%TD*%
%TO.C,K42*%
X262790000Y-57785000D03*
X275717000Y-55245000D03*
%TD*%
%TO.C,K47*%
X88958750Y-76835000D03*
X101885750Y-74295000D03*
%TD*%
%TO.C,K40*%
X219927500Y-57785000D03*
X232854500Y-55245000D03*
%TD*%
%TO.C,K23*%
X153252500Y-38735000D03*
X166179500Y-36195000D03*
%TD*%
%TO.C,K31*%
X48477500Y-57785000D03*
X61404500Y-55245000D03*
%TD*%
%TO.C,K30*%
X22283750Y-57785000D03*
X35210750Y-55245000D03*
%TD*%
%TO.C,K21*%
X115152500Y-38735000D03*
X128079500Y-36195000D03*
%TD*%
%TO.C,K19*%
X77052500Y-38735000D03*
X89979500Y-36195000D03*
%TD*%
%TO.C,K3*%
X53240000Y-19685000D03*
X66167000Y-17145000D03*
%TD*%
%TO.C,K33*%
X86577500Y-57785000D03*
X99504500Y-55245000D03*
%TD*%
%TO.C,K53*%
X243740000Y-76835000D03*
X256667000Y-74295000D03*
%TD*%
%TO.C,K5*%
X91340000Y-19685000D03*
X104267000Y-17145000D03*
%TD*%
M02*
