M48
; DRILL file {KiCad (6.0.10)} date Sun Jan 15 11:01:48 2023
; FORMAT={-:-/ absolute / metric / decimal}
; #@! TF.CreationDate,2023-01-15T11:01:48+05:00
; #@! TF.GenerationSoftware,Kicad,Pcbnew,(6.0.10)
; #@! TF.FileFunction,NonPlated,1,2,NPTH
FMAT,2
METRIC
; #@! TA.AperFunction,NonPlated,NPTH,ComponentDrill
T1C1.750
; #@! TA.AperFunction,NonPlated,NPTH,ComponentDrill
T2C3.048
; #@! TA.AperFunction,NonPlated,NPTH,ComponentDrill
T3C3.050
; #@! TA.AperFunction,NonPlated,NPTH,ComponentDrill
T4C3.988
; #@! TA.AperFunction,NonPlated,NPTH,ComponentDrill
T5C4.000
%
G90
G05
T1
X17.145Y-22.225
X17.145Y-79.375
X19.526Y-41.275
X24.289Y-60.325
X27.305Y-22.225
X27.305Y-79.375
X29.686Y-41.275
X34.449Y-60.325
X36.195Y-22.225
X36.195Y-79.375
X40.957Y-41.275
X46.355Y-22.225
X46.355Y-79.375
X50.482Y-60.325
X51.117Y-41.275
X55.245Y-22.225
X55.245Y-79.375
X60.008Y-41.275
X60.642Y-60.325
X65.405Y-22.225
X65.405Y-79.375
X69.532Y-60.325
X70.167Y-41.275
X74.295Y-22.225
X79.057Y-41.275
X79.692Y-60.325
X84.455Y-22.225
X88.582Y-60.325
X89.218Y-41.275
X90.964Y-79.375
X93.345Y-22.225
X98.108Y-41.275
X98.742Y-60.325
X101.124Y-79.375
X103.505Y-22.225
X107.632Y-60.325
X108.267Y-41.275
X112.395Y-22.225
X117.157Y-41.275
X117.792Y-60.325
X122.555Y-22.225
X126.682Y-60.325
X127.317Y-41.275
X131.445Y-22.225
X136.207Y-41.275
X136.843Y-60.325
X138.589Y-79.375
X141.605Y-22.225
X145.732Y-60.325
X146.368Y-41.275
X148.749Y-79.375
X150.495Y-22.225
X155.257Y-41.275
X155.892Y-60.325
X160.655Y-22.225
X164.782Y-60.325
X165.417Y-41.275
X169.545Y-22.225
X169.545Y-79.375
X174.308Y-41.275
X174.942Y-60.325
X179.705Y-22.225
X179.705Y-79.375
X183.832Y-60.325
X184.468Y-41.275
X188.595Y-22.225
X188.595Y-79.375
X193.357Y-41.275
X193.992Y-60.325
X198.755Y-22.225
X198.755Y-79.375
X202.882Y-60.325
X203.517Y-41.275
X207.645Y-22.225
X207.645Y-79.375
X212.407Y-41.275
X213.042Y-60.325
X217.805Y-22.225
X217.805Y-79.375
X221.932Y-60.325
X222.567Y-41.275
X226.695Y-22.225
X226.695Y-79.375
X231.457Y-41.275
X232.093Y-60.325
X236.855Y-22.225
X236.855Y-79.375
X241.617Y-41.275
X243.364Y-60.325
X245.745Y-22.225
X245.745Y-79.375
X253.524Y-60.325
X255.905Y-22.225
X255.905Y-79.375
X257.651Y-41.275
X264.795Y-22.225
X264.795Y-60.325
X264.795Y-79.375
X267.811Y-41.275
X274.955Y-22.225
X274.955Y-60.325
X274.955Y-79.375
X283.845Y-22.225
X283.845Y-41.275
X283.845Y-60.325
X283.845Y-79.375
X294.005Y-22.225
X294.005Y-41.275
X294.005Y-60.325
X294.005Y-79.375
T2
X84.106Y-72.39
X107.982Y-72.39
X131.731Y-72.39
X155.607Y-72.39
T3
X18.415Y-19.685
X18.415Y-76.835
X20.796Y-38.735
X24.765Y-17.145
X24.765Y-74.295
X25.559Y-57.785
X27.146Y-36.195
X31.909Y-55.245
X37.465Y-19.685
X37.465Y-76.835
X42.227Y-38.735
X43.815Y-17.145
X43.815Y-74.295
X48.578Y-36.195
X51.752Y-57.785
X56.515Y-19.685
X56.515Y-76.835
X58.102Y-55.245
X61.277Y-38.735
X62.865Y-17.145
X62.865Y-74.295
X67.627Y-36.195
X70.802Y-57.785
X75.565Y-19.685
X77.153Y-55.245
X80.328Y-38.735
X81.915Y-17.145
X86.677Y-36.195
X89.852Y-57.785
X92.234Y-76.835
X94.615Y-19.685
X96.203Y-55.245
X98.584Y-74.295
X99.377Y-38.735
X100.965Y-17.145
X105.727Y-36.195
X108.902Y-57.785
X113.665Y-19.685
X115.252Y-55.245
X118.427Y-38.735
X120.015Y-17.145
X124.777Y-36.195
X127.953Y-57.785
X132.715Y-19.685
X134.302Y-55.245
X137.477Y-38.735
X139.065Y-17.145
X139.859Y-76.835
X143.827Y-36.195
X146.209Y-74.295
X147.002Y-57.785
X151.765Y-19.685
X153.352Y-55.245
X156.528Y-38.735
X158.115Y-17.145
X162.877Y-36.195
X166.052Y-57.785
X170.815Y-19.685
X170.815Y-76.835
X172.403Y-55.245
X175.577Y-38.735
X177.165Y-17.145
X177.165Y-74.295
X181.927Y-36.195
X185.102Y-57.785
X189.865Y-19.685
X189.865Y-76.835
X191.452Y-55.245
X194.627Y-38.735
X196.215Y-17.145
X196.215Y-74.295
X200.977Y-36.195
X204.153Y-57.785
X208.915Y-19.685
X208.915Y-76.835
X210.502Y-55.245
X213.677Y-38.735
X215.265Y-17.145
X215.265Y-74.295
X220.028Y-36.195
X223.202Y-57.785
X227.965Y-19.685
X227.965Y-76.835
X229.552Y-55.245
X232.727Y-38.735
X234.315Y-17.145
X234.315Y-74.295
X239.077Y-36.195
X244.634Y-57.785
X247.015Y-19.685
X247.015Y-76.835
X250.984Y-55.245
X253.365Y-17.145
X253.365Y-74.295
X258.921Y-38.735
X265.271Y-36.195
X266.065Y-19.685
X266.065Y-57.785
X266.065Y-76.835
X272.415Y-17.145
X272.415Y-55.245
X272.415Y-74.295
X285.115Y-19.685
X285.115Y-38.735
X285.115Y-57.785
X285.115Y-76.835
X291.465Y-17.145
X291.465Y-36.195
X291.465Y-55.245
X291.465Y-74.295
T4
X84.106Y-87.6
X107.982Y-87.6
X131.731Y-87.6
X155.607Y-87.6
T5
X22.225Y-22.225
X22.225Y-79.375
X24.606Y-41.275
X29.369Y-60.325
X41.275Y-22.225
X41.275Y-79.375
X46.038Y-41.275
X55.562Y-60.325
X60.325Y-22.225
X60.325Y-79.375
X65.087Y-41.275
X74.612Y-60.325
X79.375Y-22.225
X84.138Y-41.275
X93.662Y-60.325
X96.044Y-79.375
X98.425Y-22.225
X103.188Y-41.275
X112.712Y-60.325
X117.475Y-22.225
X122.237Y-41.275
X131.762Y-60.325
X136.525Y-22.225
X141.287Y-41.275
X143.669Y-79.375
X150.812Y-60.325
X155.575Y-22.225
X160.338Y-41.275
X169.862Y-60.325
X174.625Y-22.225
X174.625Y-79.375
X179.387Y-41.275
X188.912Y-60.325
X193.675Y-22.225
X193.675Y-79.375
X198.438Y-41.275
X207.962Y-60.325
X212.725Y-22.225
X212.725Y-79.375
X217.487Y-41.275
X227.012Y-60.325
X231.775Y-22.225
X231.775Y-79.375
X236.537Y-41.275
X248.444Y-60.325
X250.825Y-22.225
X250.825Y-79.375
X262.731Y-41.275
X269.875Y-22.225
X269.875Y-60.325
X269.875Y-79.375
X288.925Y-22.225
X288.925Y-41.275
X288.925Y-60.325
X288.925Y-79.375
T0
M30
