M48
; DRILL file {KiCad (6.0.10)} date Sun Jan 15 11:01:48 2023
; FORMAT={-:-/ absolute / metric / decimal}
; #@! TF.CreationDate,2023-01-15T11:01:48+05:00
; #@! TF.GenerationSoftware,Kicad,Pcbnew,(6.0.10)
; #@! TF.FileFunction,Plated,1,2,PTH
FMAT,2
METRIC
; #@! TA.AperFunction,Plated,PTH,ViaDrill
T1C0.400
; #@! TA.AperFunction,Plated,PTH,ComponentDrill
T2C0.991
; #@! TA.AperFunction,Plated,PTH,ComponentDrill
T3C1.100
%
G90
G05
T1
X58.002Y-30.897
X72.231Y-26.759
X96.044Y-26.987
X110.331Y-26.987
X129.381Y-26.987
X153.194Y-26.987
X167.481Y-26.987
X191.294Y-26.987
X211.773Y-48.577
X231.884Y-48.31
X255.646Y-48.36
X281.84Y-48.36
X292.712Y-31.568
T2
X31.545Y-18.415
X31.545Y-26.035
X31.545Y-75.565
X31.545Y-83.185
X33.927Y-37.465
X33.927Y-45.085
X38.689Y-56.515
X38.689Y-64.135
X50.596Y-18.415
X50.596Y-26.035
X50.596Y-75.565
X50.596Y-83.185
X55.358Y-37.465
X55.358Y-45.085
X64.883Y-56.515
X64.883Y-64.135
X69.645Y-18.415
X69.645Y-26.035
X69.645Y-75.565
X69.645Y-83.185
X74.408Y-37.465
X74.408Y-45.085
X83.933Y-56.515
X83.933Y-64.135
X88.695Y-18.415
X88.695Y-26.035
X93.458Y-37.465
X93.458Y-45.085
X102.983Y-56.515
X102.983Y-64.135
X105.364Y-75.565
X105.364Y-83.185
X107.745Y-18.415
X107.745Y-26.035
X112.508Y-37.465
X112.508Y-45.085
X122.033Y-56.515
X122.033Y-64.135
X126.795Y-18.415
X126.795Y-26.035
X131.558Y-37.465
X131.558Y-45.085
X141.083Y-56.515
X141.083Y-64.135
X145.845Y-18.415
X145.845Y-26.035
X150.608Y-37.465
X150.608Y-45.085
X152.989Y-75.565
X152.989Y-83.185
X160.133Y-56.515
X160.133Y-64.135
X164.895Y-18.415
X164.895Y-26.035
X169.658Y-37.465
X169.658Y-45.085
X179.183Y-56.515
X179.183Y-64.135
X183.945Y-18.415
X183.945Y-26.035
X183.945Y-75.565
X183.945Y-83.185
X188.708Y-37.465
X188.708Y-45.085
X198.233Y-56.515
X198.233Y-64.135
X202.995Y-18.415
X202.995Y-26.035
X202.995Y-75.565
X202.995Y-83.185
X207.758Y-37.465
X207.758Y-45.085
X217.283Y-56.515
X217.283Y-64.135
X222.046Y-18.415
X222.046Y-26.035
X222.046Y-75.565
X222.046Y-83.185
X226.808Y-37.465
X226.808Y-45.085
X236.333Y-56.515
X236.333Y-64.135
X241.095Y-18.415
X241.095Y-26.035
X241.095Y-75.565
X241.095Y-83.185
X245.858Y-37.465
X245.858Y-45.085
X257.764Y-56.515
X257.764Y-64.135
X260.145Y-18.415
X260.145Y-26.035
X260.145Y-75.565
X260.145Y-83.185
X272.052Y-37.465
X272.052Y-45.085
X279.195Y-18.415
X279.195Y-26.035
X279.195Y-56.515
X279.195Y-64.135
X279.195Y-75.565
X279.195Y-83.185
X298.245Y-18.415
X298.245Y-26.035
X298.245Y-37.465
X298.245Y-45.085
X298.245Y-56.515
X298.245Y-64.135
X298.245Y-75.565
X298.245Y-83.185
T3
X21.138Y-30.988
X21.138Y-51.562
X23.678Y-30.988
X23.678Y-51.562
X26.218Y-30.988
X26.218Y-51.562
X28.758Y-30.988
X28.758Y-51.562
X31.298Y-30.988
X31.298Y-51.562
X33.838Y-30.988
X33.838Y-51.562
X36.378Y-30.988
X36.378Y-51.562
X38.918Y-30.988
X38.918Y-51.562
X41.458Y-30.988
X41.458Y-51.562
X43.998Y-30.988
X43.998Y-51.562
X46.538Y-30.988
X46.538Y-51.562
X49.078Y-30.988
X49.078Y-51.562
T0
M30
