%TF.GenerationSoftware,KiCad,Pcbnew,(6.0.10)*%
%TF.CreationDate,2023-01-15T11:01:46+05:00*%
%TF.ProjectId,key55,6b657935-352e-46b6-9963-61645f706362,rev?*%
%TF.SameCoordinates,Original*%
%TF.FileFunction,Copper,L1,Top*%
%TF.FilePolarity,Positive*%
%FSLAX46Y46*%
G04 Gerber Fmt 4.6, Leading zero omitted, Abs format (unit mm)*
G04 Created by KiCad (PCBNEW (6.0.10)) date 2023-01-15 11:01:46*
%MOMM*%
%LPD*%
G01*
G04 APERTURE LIST*
%TA.AperFunction,ComponentPad*%
%ADD10C,1.778000*%
%TD*%
%TA.AperFunction,ComponentPad*%
%ADD11R,1.778000X1.778000*%
%TD*%
%TA.AperFunction,ComponentPad*%
%ADD12R,1.600000X1.600000*%
%TD*%
%TA.AperFunction,ComponentPad*%
%ADD13C,1.600000*%
%TD*%
%TA.AperFunction,ViaPad*%
%ADD14C,0.800000*%
%TD*%
%TA.AperFunction,Conductor*%
%ADD15C,0.250000*%
%TD*%
G04 APERTURE END LIST*
D10*
%TO.P,D39,1*%
%TO.N,ROW2*%
X217283000Y-64135000D03*
D11*
%TO.P,D39,2*%
%TO.N,Net-(D39-Pad2)*%
X217283000Y-56515000D03*
%TD*%
D10*
%TO.P,D12,1*%
%TO.N,ROW0*%
X241095500Y-26035000D03*
D11*
%TO.P,D12,2*%
%TO.N,Net-(D12-Pad2)*%
X241095500Y-18415000D03*
%TD*%
D10*
%TO.P,D9,1*%
%TO.N,ROW0*%
X183945500Y-26035000D03*
D11*
%TO.P,D9,2*%
%TO.N,Net-(D9-Pad2)*%
X183945500Y-18415000D03*
%TD*%
D10*
%TO.P,D54,1*%
%TO.N,ROW3*%
X279195500Y-83185000D03*
D11*
%TO.P,D54,2*%
%TO.N,Net-(D54-Pad2)*%
X279195500Y-75565000D03*
%TD*%
D10*
%TO.P,D52,1*%
%TO.N,ROW3*%
X241095500Y-83185000D03*
D11*
%TO.P,D52,2*%
%TO.N,Net-(D52-Pad2)*%
X241095500Y-75565000D03*
%TD*%
D10*
%TO.P,D55,1*%
%TO.N,ROW3*%
X298245500Y-83185000D03*
D11*
%TO.P,D55,2*%
%TO.N,Net-(D55-Pad2)*%
X298245500Y-75565000D03*
%TD*%
D10*
%TO.P,D47,1*%
%TO.N,ROW3*%
X105364250Y-83185000D03*
D11*
%TO.P,D47,2*%
%TO.N,Net-(D47-Pad2)*%
X105364250Y-75565000D03*
%TD*%
D10*
%TO.P,D33,1*%
%TO.N,ROW2*%
X102983000Y-64135000D03*
D11*
%TO.P,D33,2*%
%TO.N,Net-(D33-Pad2)*%
X102983000Y-56515000D03*
%TD*%
D10*
%TO.P,D48,1*%
%TO.N,ROW3*%
X152989250Y-83185000D03*
D11*
%TO.P,D48,2*%
%TO.N,Net-(D48-Pad2)*%
X152989250Y-75565000D03*
%TD*%
D10*
%TO.P,D37,1*%
%TO.N,ROW2*%
X179183000Y-64135000D03*
D11*
%TO.P,D37,2*%
%TO.N,Net-(D37-Pad2)*%
X179183000Y-56515000D03*
%TD*%
D10*
%TO.P,D2,1*%
%TO.N,ROW0*%
X50595500Y-26035000D03*
D11*
%TO.P,D2,2*%
%TO.N,Net-(D2-Pad2)*%
X50595500Y-18415000D03*
%TD*%
D10*
%TO.P,D19,1*%
%TO.N,ROW1*%
X93458000Y-45085000D03*
D11*
%TO.P,D19,2*%
%TO.N,Net-(D19-Pad2)*%
X93458000Y-37465000D03*
%TD*%
D10*
%TO.P,D1,1*%
%TO.N,ROW0*%
X31545500Y-26035000D03*
D11*
%TO.P,D1,2*%
%TO.N,Net-(D1-Pad2)*%
X31545500Y-18415000D03*
%TD*%
D10*
%TO.P,D3,1*%
%TO.N,ROW0*%
X69645500Y-26035000D03*
D11*
%TO.P,D3,2*%
%TO.N,Net-(D3-Pad2)*%
X69645500Y-18415000D03*
%TD*%
D10*
%TO.P,D36,1*%
%TO.N,ROW2*%
X160133000Y-64135000D03*
D11*
%TO.P,D36,2*%
%TO.N,Net-(D36-Pad2)*%
X160133000Y-56515000D03*
%TD*%
D10*
%TO.P,D14,1*%
%TO.N,ROW0*%
X279195500Y-26035000D03*
D11*
%TO.P,D14,2*%
%TO.N,Net-(D14-Pad2)*%
X279195500Y-18415000D03*
%TD*%
D10*
%TO.P,D13,1*%
%TO.N,ROW0*%
X260145500Y-26035000D03*
D11*
%TO.P,D13,2*%
%TO.N,Net-(D13-Pad2)*%
X260145500Y-18415000D03*
%TD*%
D10*
%TO.P,D30,1*%
%TO.N,ROW2*%
X38689250Y-64135000D03*
D11*
%TO.P,D30,2*%
%TO.N,Net-(D30-Pad2)*%
X38689250Y-56515000D03*
%TD*%
D10*
%TO.P,D25,1*%
%TO.N,ROW1*%
X207758000Y-45085000D03*
D11*
%TO.P,D25,2*%
%TO.N,Net-(D25-Pad2)*%
X207758000Y-37465000D03*
%TD*%
D10*
%TO.P,D45,1*%
%TO.N,ROW3*%
X50595500Y-83185000D03*
D11*
%TO.P,D45,2*%
%TO.N,Net-(D45-Pad2)*%
X50595500Y-75565000D03*
%TD*%
D10*
%TO.P,D21,1*%
%TO.N,ROW1*%
X131558000Y-45085000D03*
D11*
%TO.P,D21,2*%
%TO.N,Net-(D21-Pad2)*%
X131558000Y-37465000D03*
%TD*%
D10*
%TO.P,D34,1*%
%TO.N,ROW2*%
X122033000Y-64135000D03*
D11*
%TO.P,D34,2*%
%TO.N,Net-(D34-Pad2)*%
X122033000Y-56515000D03*
%TD*%
D10*
%TO.P,D4,1*%
%TO.N,ROW0*%
X88695500Y-26035000D03*
D11*
%TO.P,D4,2*%
%TO.N,Net-(D4-Pad2)*%
X88695500Y-18415000D03*
%TD*%
D10*
%TO.P,D31,1*%
%TO.N,ROW2*%
X64883000Y-64135000D03*
D11*
%TO.P,D31,2*%
%TO.N,Net-(D31-Pad2)*%
X64883000Y-56515000D03*
%TD*%
D10*
%TO.P,D5,1*%
%TO.N,ROW0*%
X107745500Y-26035000D03*
D11*
%TO.P,D5,2*%
%TO.N,Net-(D5-Pad2)*%
X107745500Y-18415000D03*
%TD*%
D10*
%TO.P,D41,1*%
%TO.N,ROW2*%
X257764250Y-64135000D03*
D11*
%TO.P,D41,2*%
%TO.N,Net-(D41-Pad2)*%
X257764250Y-56515000D03*
%TD*%
D10*
%TO.P,D15,1*%
%TO.N,ROW3*%
X298245500Y-26035000D03*
D11*
%TO.P,D15,2*%
%TO.N,Net-(D15-Pad2)*%
X298245500Y-18415000D03*
%TD*%
D10*
%TO.P,D35,1*%
%TO.N,ROW2*%
X141083000Y-64135000D03*
D11*
%TO.P,D35,2*%
%TO.N,Net-(D35-Pad2)*%
X141083000Y-56515000D03*
%TD*%
D10*
%TO.P,D38,1*%
%TO.N,ROW2*%
X198233000Y-64135000D03*
D11*
%TO.P,D38,2*%
%TO.N,Net-(D38-Pad2)*%
X198233000Y-56515000D03*
%TD*%
D10*
%TO.P,D16,1*%
%TO.N,ROW1*%
X33926750Y-45085000D03*
D11*
%TO.P,D16,2*%
%TO.N,Net-(D16-Pad2)*%
X33926750Y-37465000D03*
%TD*%
D10*
%TO.P,D26,1*%
%TO.N,ROW1*%
X226808000Y-45085000D03*
D11*
%TO.P,D26,2*%
%TO.N,Net-(D26-Pad2)*%
X226808000Y-37465000D03*
%TD*%
D10*
%TO.P,D51,1*%
%TO.N,ROW3*%
X222045500Y-83185000D03*
D11*
%TO.P,D51,2*%
%TO.N,Net-(D51-Pad2)*%
X222045500Y-75565000D03*
%TD*%
D10*
%TO.P,D53,1*%
%TO.N,ROW3*%
X260145500Y-83185000D03*
D11*
%TO.P,D53,2*%
%TO.N,Net-(D53-Pad2)*%
X260145500Y-75565000D03*
%TD*%
D10*
%TO.P,D22,1*%
%TO.N,ROW1*%
X150608000Y-45085000D03*
D11*
%TO.P,D22,2*%
%TO.N,Net-(D22-Pad2)*%
X150608000Y-37465000D03*
%TD*%
D10*
%TO.P,D27,1*%
%TO.N,ROW1*%
X245858000Y-45085000D03*
D11*
%TO.P,D27,2*%
%TO.N,Net-(D27-Pad2)*%
X245858000Y-37465000D03*
%TD*%
D10*
%TO.P,D44,1*%
%TO.N,ROW3*%
X31545500Y-83185000D03*
D11*
%TO.P,D44,2*%
%TO.N,Net-(D44-Pad2)*%
X31545500Y-75565000D03*
%TD*%
D10*
%TO.P,D42,1*%
%TO.N,ROW2*%
X279195500Y-64135000D03*
D11*
%TO.P,D42,2*%
%TO.N,Net-(D42-Pad2)*%
X279195500Y-56515000D03*
%TD*%
D10*
%TO.P,D17,1*%
%TO.N,ROW1*%
X55358000Y-45085000D03*
D11*
%TO.P,D17,2*%
%TO.N,Net-(D17-Pad2)*%
X55358000Y-37465000D03*
%TD*%
D10*
%TO.P,D46,1*%
%TO.N,ROW3*%
X69645500Y-83185000D03*
D11*
%TO.P,D46,2*%
%TO.N,Net-(D46-Pad2)*%
X69645500Y-75565000D03*
%TD*%
D10*
%TO.P,D32,1*%
%TO.N,ROW2*%
X83933000Y-64135000D03*
D11*
%TO.P,D32,2*%
%TO.N,Net-(D32-Pad2)*%
X83933000Y-56515000D03*
%TD*%
D10*
%TO.P,D23,1*%
%TO.N,ROW1*%
X169658000Y-45085000D03*
D11*
%TO.P,D23,2*%
%TO.N,Net-(D23-Pad2)*%
X169658000Y-37465000D03*
%TD*%
D10*
%TO.P,D11,1*%
%TO.N,ROW0*%
X222045500Y-26035000D03*
D11*
%TO.P,D11,2*%
%TO.N,Net-(D11-Pad2)*%
X222045500Y-18415000D03*
%TD*%
D10*
%TO.P,D29,1*%
%TO.N,ROW1*%
X298245500Y-45085000D03*
D11*
%TO.P,D29,2*%
%TO.N,Net-(D29-Pad2)*%
X298245500Y-37465000D03*
%TD*%
D10*
%TO.P,D6,1*%
%TO.N,ROW0*%
X126795500Y-26035000D03*
D11*
%TO.P,D6,2*%
%TO.N,Net-(D6-Pad2)*%
X126795500Y-18415000D03*
%TD*%
D10*
%TO.P,D8,1*%
%TO.N,ROW0*%
X164895500Y-26035000D03*
D11*
%TO.P,D8,2*%
%TO.N,Net-(D8-Pad2)*%
X164895500Y-18415000D03*
%TD*%
D10*
%TO.P,D28,1*%
%TO.N,ROW1*%
X272051750Y-45085000D03*
D11*
%TO.P,D28,2*%
%TO.N,Net-(D28-Pad2)*%
X272051750Y-37465000D03*
%TD*%
D10*
%TO.P,D50,1*%
%TO.N,ROW3*%
X202995500Y-83185000D03*
D11*
%TO.P,D50,2*%
%TO.N,Net-(D50-Pad2)*%
X202995500Y-75565000D03*
%TD*%
D10*
%TO.P,D24,1*%
%TO.N,ROW1*%
X188708000Y-45085000D03*
D11*
%TO.P,D24,2*%
%TO.N,Net-(D24-Pad2)*%
X188708000Y-37465000D03*
%TD*%
D10*
%TO.P,D43,1*%
%TO.N,ROW2*%
X298245500Y-64135000D03*
D11*
%TO.P,D43,2*%
%TO.N,Net-(D43-Pad2)*%
X298245500Y-56515000D03*
%TD*%
D10*
%TO.P,D49,1*%
%TO.N,ROW3*%
X183945500Y-83185000D03*
D11*
%TO.P,D49,2*%
%TO.N,Net-(D49-Pad2)*%
X183945500Y-75565000D03*
%TD*%
D10*
%TO.P,D10,1*%
%TO.N,ROW0*%
X202995500Y-26035000D03*
D11*
%TO.P,D10,2*%
%TO.N,Net-(D10-Pad2)*%
X202995500Y-18415000D03*
%TD*%
D10*
%TO.P,D18,1*%
%TO.N,ROW1*%
X74408000Y-45085000D03*
D11*
%TO.P,D18,2*%
%TO.N,Net-(D18-Pad2)*%
X74408000Y-37465000D03*
%TD*%
D10*
%TO.P,D20,1*%
%TO.N,ROW1*%
X112508000Y-45085000D03*
D11*
%TO.P,D20,2*%
%TO.N,Net-(D20-Pad2)*%
X112508000Y-37465000D03*
%TD*%
D10*
%TO.P,D7,1*%
%TO.N,ROW0*%
X145845500Y-26035000D03*
D11*
%TO.P,D7,2*%
%TO.N,Net-(D7-Pad2)*%
X145845500Y-18415000D03*
%TD*%
D10*
%TO.P,D40,1*%
%TO.N,ROW2*%
X236333000Y-64135000D03*
D11*
%TO.P,D40,2*%
%TO.N,Net-(D40-Pad2)*%
X236333000Y-56515000D03*
%TD*%
D12*
%TO.P,U1,1,TX*%
%TO.N,COL0*%
X21138000Y-30988000D03*
D13*
%TO.P,U1,2,RX*%
%TO.N,COL1*%
X23678000Y-30988000D03*
%TO.P,U1,3,GND*%
%TO.N,unconnected-(U1-Pad3)*%
X26218000Y-30988000D03*
%TO.P,U1,4,GND*%
%TO.N,unconnected-(U1-Pad4)*%
X28758000Y-30988000D03*
%TO.P,U1,5,SDA*%
%TO.N,COL2*%
X31298000Y-30988000D03*
%TO.P,U1,6,SCL*%
%TO.N,COL3*%
X33838000Y-30988000D03*
%TO.P,U1,7,D4*%
%TO.N,COL4*%
X36378000Y-30988000D03*
%TO.P,U1,8,C6*%
%TO.N,COL5*%
X38918000Y-30988000D03*
%TO.P,U1,9,D7*%
%TO.N,COL6*%
X41458000Y-30988000D03*
%TO.P,U1,10,E6*%
%TO.N,COL7*%
X43998000Y-30988000D03*
%TO.P,U1,11,B4*%
%TO.N,COL8*%
X46538000Y-30988000D03*
%TO.P,U1,12,B5*%
%TO.N,COL9*%
X49078000Y-30988000D03*
%TO.P,U1,13,B6*%
%TO.N,ROW3*%
X49078000Y-51562000D03*
%TO.P,U1,14,B2*%
%TO.N,ROW2*%
X46538000Y-51562000D03*
%TO.P,U1,15,B3*%
%TO.N,ROW1*%
X43998000Y-51562000D03*
%TO.P,U1,16,B1*%
%TO.N,ROW0*%
X41458000Y-51562000D03*
%TO.P,U1,17,F7*%
%TO.N,COL13*%
X38918000Y-51562000D03*
%TO.P,U1,18,F6*%
%TO.N,COL12*%
X36378000Y-51562000D03*
%TO.P,U1,19,F5*%
%TO.N,COL11*%
X33838000Y-51562000D03*
%TO.P,U1,20,F4*%
%TO.N,COL10*%
X31298000Y-51562000D03*
%TO.P,U1,21,VCC*%
%TO.N,unconnected-(U1-Pad21)*%
X28758000Y-51562000D03*
%TO.P,U1,22,RST*%
%TO.N,unconnected-(U1-Pad22)*%
X26218000Y-51562000D03*
%TO.P,U1,23,GND*%
%TO.N,unconnected-(U1-Pad23)*%
X23678000Y-51562000D03*
%TO.P,U1,24,RAW*%
%TO.N,unconnected-(U1-Pad24)*%
X21138000Y-51562000D03*
%TD*%
D14*
%TO.N,ROW3*%
X292712125Y-31568375D03*
%TO.N,COL2*%
X58002500Y-30897500D03*
%TO.N,COL3*%
X72231250Y-26759500D03*
%TO.N,COL4*%
X96043750Y-26987500D03*
%TO.N,COL5*%
X110331250Y-26987500D03*
%TO.N,COL6*%
X129381250Y-26987500D03*
%TO.N,COL7*%
X153193750Y-26987500D03*
%TO.N,COL8*%
X167481250Y-26987500D03*
%TO.N,COL9*%
X191293750Y-26987500D03*
%TO.N,COL10*%
X211773000Y-48577000D03*
%TO.N,COL11*%
X231883750Y-48310000D03*
%TO.N,COL12*%
X255646250Y-48360000D03*
%TO.N,COL13*%
X281840000Y-48360000D03*
%TD*%
D15*
%TO.N,ROW0*%
X31545500Y-26035000D02*
X50595500Y-26035000D01*
X50595500Y-26035000D02*
X279195500Y-26035000D01*
%TO.N,ROW3*%
X298245500Y-83185000D02*
X31545500Y-83185000D01*
X37475250Y-63164750D02*
X37475250Y-73649750D01*
X49078000Y-51562000D02*
X37475250Y-63164750D01*
X37475250Y-73649750D02*
X31545500Y-79579500D01*
X31545500Y-79579500D02*
X31545500Y-83185000D01*
%TO.N,ROW1*%
X298245500Y-45085000D02*
X33926750Y-45085000D01*
%TO.N,ROW2*%
X38689250Y-64135000D02*
X298245500Y-64135000D01*
%TO.N,COL2*%
X56742000Y-32158000D02*
X58002500Y-30897500D01*
X31515500Y-31033000D02*
X32640500Y-32158000D01*
X32640500Y-32158000D02*
X56742000Y-32158000D01*
%TO.N,COL3*%
X37839500Y-27249000D02*
X34055500Y-31033000D01*
X72231250Y-26759500D02*
X71741750Y-27249000D01*
X71741750Y-27249000D02*
X37839500Y-27249000D01*
%TO.N,COL4*%
X39929500Y-27699000D02*
X95332250Y-27699000D01*
X95332250Y-27699000D02*
X96043750Y-26987500D01*
X36595500Y-31033000D02*
X39929500Y-27699000D01*
%TO.N,COL5*%
X109169750Y-28149000D02*
X110331250Y-26987500D01*
X42019500Y-28149000D02*
X109169750Y-28149000D01*
X39135500Y-31033000D02*
X42019500Y-28149000D01*
%TO.N,COL6*%
X127769750Y-28599000D02*
X129381250Y-26987500D01*
X41675500Y-31033000D02*
X44109500Y-28599000D01*
X44109500Y-28599000D02*
X127769750Y-28599000D01*
%TO.N,COL7*%
X151132250Y-29049000D02*
X153193750Y-26987500D01*
X44215500Y-31033000D02*
X46199500Y-29049000D01*
X46199500Y-29049000D02*
X151132250Y-29049000D01*
%TO.N,COL8*%
X46755500Y-31033000D02*
X48289500Y-29499000D01*
X164969750Y-29499000D02*
X167481250Y-26987500D01*
X48289500Y-29499000D02*
X164969750Y-29499000D01*
%TO.N,COL9*%
X188332250Y-29949000D02*
X50379500Y-29949000D01*
X50379500Y-29949000D02*
X49295500Y-31033000D01*
X191293750Y-26987500D02*
X188332250Y-29949000D01*
%TO.N,COL10*%
X211263000Y-49087000D02*
X211773000Y-48577000D01*
X31298000Y-51562000D02*
X33773000Y-49087000D01*
X33773000Y-49087000D02*
X211263000Y-49087000D01*
%TO.N,COL11*%
X230656750Y-49537000D02*
X35863000Y-49537000D01*
X231883750Y-48310000D02*
X230656750Y-49537000D01*
X35863000Y-49537000D02*
X33838000Y-51562000D01*
%TO.N,COL12*%
X79375000Y-49987000D02*
X254019250Y-49987000D01*
X37953000Y-49987000D02*
X79375000Y-49987000D01*
X255646250Y-48360000D02*
X254019250Y-49987000D01*
X36378000Y-51562000D02*
X37953000Y-49987000D01*
%TO.N,COL13*%
X40043000Y-50437000D02*
X279763000Y-50437000D01*
X281840000Y-48360000D02*
X279763000Y-50437000D01*
X38918000Y-51562000D02*
X40043000Y-50437000D01*
%TD*%
M02*
