%TF.GenerationSoftware,KiCad,Pcbnew,(6.0.10)*%
%TF.CreationDate,2023-01-15T11:01:46+05:00*%
%TF.ProjectId,key55,6b657935-352e-46b6-9963-61645f706362,rev?*%
%TF.SameCoordinates,Original*%
%TF.FileFunction,Legend,Bot*%
%TF.FilePolarity,Positive*%
%FSLAX46Y46*%
G04 Gerber Fmt 4.6, Leading zero omitted, Abs format (unit mm)*
G04 Created by KiCad (PCBNEW (6.0.10)) date 2023-01-15 11:01:46*
%MOMM*%
%LPD*%
G01*
G04 APERTURE LIST*
G04 Aperture macros list*
%AMRoundRect*
0 Rectangle with rounded corners*
0 $1 Rounding radius*
0 $2 $3 $4 $5 $6 $7 $8 $9 X,Y pos of 4 corners*
0 Add a 4 corners polygon primitive as box body*
4,1,4,$2,$3,$4,$5,$6,$7,$8,$9,$2,$3,0*
0 Add four circle primitives for the rounded corners*
1,1,$1+$1,$2,$3*
1,1,$1+$1,$4,$5*
1,1,$1+$1,$6,$7*
1,1,$1+$1,$8,$9*
0 Add four rect primitives between the rounded corners*
20,1,$1+$1,$2,$3,$4,$5,0*
20,1,$1+$1,$4,$5,$6,$7,0*
20,1,$1+$1,$6,$7,$8,$9,0*
20,1,$1+$1,$8,$9,$2,$3,0*%
G04 Aperture macros list end*
%ADD10C,0.150000*%
%ADD11C,0.120000*%
%ADD12C,1.778000*%
%ADD13R,1.778000X1.778000*%
%ADD14R,1.600000X1.600000*%
%ADD15C,1.600000*%
%ADD16C,1.750000*%
%ADD17C,4.000000*%
%ADD18C,3.050000*%
%ADD19RoundRect,0.250000X-1.025000X-1.000000X1.025000X-1.000000X1.025000X1.000000X-1.025000X1.000000X0*%
%ADD20C,3.987800*%
%ADD21C,3.048000*%
G04 APERTURE END LIST*
D10*
X75182470Y-32202380D02*
X75057470Y-31202380D01*
X74611041Y-32202380D02*
X74968184Y-31630952D01*
X74486041Y-31202380D02*
X75128898Y-31773809D01*
X73795565Y-32154761D02*
X73896755Y-32202380D01*
X74087232Y-32202380D01*
X74176517Y-32154761D01*
X74212232Y-32059523D01*
X74164613Y-31678571D01*
X74105089Y-31583333D01*
X74003898Y-31535714D01*
X73813422Y-31535714D01*
X73724136Y-31583333D01*
X73688422Y-31678571D01*
X73700327Y-31773809D01*
X74188422Y-31869047D01*
X73337232Y-31535714D02*
X73182470Y-32202380D01*
X72861041Y-31535714D02*
X73182470Y-32202380D01*
X73307470Y-32440476D01*
X73361041Y-32488095D01*
X73462232Y-32535714D01*
X71962232Y-31202380D02*
X72438422Y-31202380D01*
X72545565Y-31678571D01*
X72491994Y-31630952D01*
X72390803Y-31583333D01*
X72152708Y-31583333D01*
X72063422Y-31630952D01*
X72021755Y-31678571D01*
X71986041Y-31773809D01*
X72015803Y-32011904D01*
X72075327Y-32107142D01*
X72128898Y-32154761D01*
X72230089Y-32202380D01*
X72468184Y-32202380D01*
X72557470Y-32154761D01*
X72599136Y-32107142D01*
X71009851Y-31202380D02*
X71486041Y-31202380D01*
X71593184Y-31678571D01*
X71539613Y-31630952D01*
X71438422Y-31583333D01*
X71200327Y-31583333D01*
X71111041Y-31630952D01*
X71069375Y-31678571D01*
X71033660Y-31773809D01*
X71063422Y-32011904D01*
X71122946Y-32107142D01*
X71176517Y-32154761D01*
X71277708Y-32202380D01*
X71515803Y-32202380D01*
X71605089Y-32154761D01*
X71646755Y-32107142D01*
X69896755Y-32202380D02*
X69771755Y-31202380D01*
X69819375Y-31583333D02*
X69718184Y-31535714D01*
X69527708Y-31535714D01*
X69438422Y-31583333D01*
X69396755Y-31630952D01*
X69361041Y-31726190D01*
X69396755Y-32011904D01*
X69456279Y-32107142D01*
X69509851Y-32154761D01*
X69611041Y-32202380D01*
X69801517Y-32202380D01*
X69890803Y-32154761D01*
X69003898Y-31535714D02*
X68849136Y-32202380D01*
X68527708Y-31535714D02*
X68849136Y-32202380D01*
X68974136Y-32440476D01*
X69027708Y-32488095D01*
X69128898Y-32535714D01*
X67563422Y-32202380D02*
X66956279Y-31535714D01*
X67480089Y-31535714D02*
X67039613Y-32202380D01*
X66700327Y-32154761D02*
X66611041Y-32202380D01*
X66420565Y-32202380D01*
X66319375Y-32154761D01*
X66259851Y-32059523D01*
X66253898Y-32011904D01*
X66289613Y-31916666D01*
X66378898Y-31869047D01*
X66521755Y-31869047D01*
X66611041Y-31821428D01*
X66646755Y-31726190D01*
X66640803Y-31678571D01*
X66581279Y-31583333D01*
X66480089Y-31535714D01*
X66337232Y-31535714D01*
X66247946Y-31583333D01*
X65765803Y-31535714D02*
X65849136Y-32202380D01*
X65777708Y-31630952D02*
X65724136Y-31583333D01*
X65622946Y-31535714D01*
X65480089Y-31535714D01*
X65390803Y-31583333D01*
X65355089Y-31678571D01*
X65420565Y-32202380D01*
X64956279Y-31535714D02*
X64801517Y-32202380D01*
X64480089Y-31535714D02*
X64801517Y-32202380D01*
X64926517Y-32440476D01*
X64980089Y-32488095D01*
X65081279Y-32535714D01*
X64224136Y-32154761D02*
X64134851Y-32202380D01*
X63944375Y-32202380D01*
X63843184Y-32154761D01*
X63783660Y-32059523D01*
X63777708Y-32011904D01*
X63813422Y-31916666D01*
X63902708Y-31869047D01*
X64045565Y-31869047D01*
X64134851Y-31821428D01*
X64170565Y-31726190D01*
X64164613Y-31678571D01*
X64105089Y-31583333D01*
X64003898Y-31535714D01*
X63861041Y-31535714D01*
X63771755Y-31583333D01*
X62295565Y-31202380D02*
X62105089Y-31202380D01*
X62015803Y-31250000D01*
X61932470Y-31345238D01*
X61908660Y-31535714D01*
X61950327Y-31869047D01*
X62021755Y-32059523D01*
X62128898Y-32154761D01*
X62230089Y-32202380D01*
X62420565Y-32202380D01*
X62509851Y-32154761D01*
X62593184Y-32059523D01*
X62616994Y-31869047D01*
X62575327Y-31535714D01*
X62503898Y-31345238D01*
X62396755Y-31250000D01*
X62295565Y-31202380D01*
X61575327Y-31535714D02*
X61468184Y-32202380D01*
X61218184Y-31726190D01*
X61087232Y-32202380D01*
X60813422Y-31535714D01*
X60200327Y-31202380D02*
X60009851Y-31202380D01*
X59920565Y-31250000D01*
X59837232Y-31345238D01*
X59813422Y-31535714D01*
X59855089Y-31869047D01*
X59926517Y-32059523D01*
X60033660Y-32154761D01*
X60134851Y-32202380D01*
X60325327Y-32202380D01*
X60414613Y-32154761D01*
X60497946Y-32059523D01*
X60521755Y-31869047D01*
X60480089Y-31535714D01*
X60408660Y-31345238D01*
X60301517Y-31250000D01*
X60200327Y-31202380D01*
D11*
%TO.C,K44*%
X22025000Y-76675000D02*
X27125000Y-76675000D01*
X18125000Y-72475000D02*
X23225000Y-72475000D01*
X18125000Y-72475000D02*
G75*
G03*
X16125000Y-74475000I-1J-1999999D01*
G01*
X22025000Y-76675000D02*
G75*
G03*
X20025000Y-78675000I-1J-1999999D01*
G01*
%TO.C,K49*%
X170525000Y-72475000D02*
X175625000Y-72475000D01*
X174425000Y-76675000D02*
X179525000Y-76675000D01*
X174425000Y-76675000D02*
G75*
G03*
X172425000Y-78675000I-1J-1999999D01*
G01*
X170525000Y-72475000D02*
G75*
G03*
X168525000Y-74475000I-1J-1999999D01*
G01*
%TO.C,K1*%
X22025000Y-19525000D02*
X27125000Y-19525000D01*
X18125000Y-15325000D02*
X23225000Y-15325000D01*
X18125000Y-15325000D02*
G75*
G03*
X16125000Y-17325000I-1J-1999999D01*
G01*
X22025000Y-19525000D02*
G75*
G03*
X20025000Y-21525000I-1J-1999999D01*
G01*
%TO.C,K7*%
X132425000Y-15325000D02*
X137525000Y-15325000D01*
X136325000Y-19525000D02*
X141425000Y-19525000D01*
X136325000Y-19525000D02*
G75*
G03*
X134325000Y-21525000I-1J-1999999D01*
G01*
X132425000Y-15325000D02*
G75*
G03*
X130425000Y-17325000I-1J-1999999D01*
G01*
%TO.C,K10*%
X189575000Y-15325000D02*
X194675000Y-15325000D01*
X193475000Y-19525000D02*
X198575000Y-19525000D01*
X189575000Y-15325000D02*
G75*
G03*
X187575000Y-17325000I-1J-1999999D01*
G01*
X193475000Y-19525000D02*
G75*
G03*
X191475000Y-21525000I-1J-1999999D01*
G01*
%TO.C,K34*%
X112512500Y-57625000D02*
X117612500Y-57625000D01*
X108612500Y-53425000D02*
X113712500Y-53425000D01*
X112512500Y-57625000D02*
G75*
G03*
X110512500Y-59625000I-1J-1999999D01*
G01*
X108612500Y-53425000D02*
G75*
G03*
X106612500Y-55425000I-1J-1999999D01*
G01*
%TO.C,K11*%
X212525000Y-19525000D02*
X217625000Y-19525000D01*
X208625000Y-15325000D02*
X213725000Y-15325000D01*
X208625000Y-15325000D02*
G75*
G03*
X206625000Y-17325000I-1J-1999999D01*
G01*
X212525000Y-19525000D02*
G75*
G03*
X210525000Y-21525000I-1J-1999999D01*
G01*
%TO.C,K18*%
X60987500Y-34375000D02*
X66087500Y-34375000D01*
X64887500Y-38575000D02*
X69987500Y-38575000D01*
X60987500Y-34375000D02*
G75*
G03*
X58987500Y-36375000I-1J-1999999D01*
G01*
X64887500Y-38575000D02*
G75*
G03*
X62887500Y-40575000I-1J-1999999D01*
G01*
%TO.C,K54*%
X269675000Y-76675000D02*
X274775000Y-76675000D01*
X265775000Y-72475000D02*
X270875000Y-72475000D01*
X265775000Y-72475000D02*
G75*
G03*
X263775000Y-74475000I-1J-1999999D01*
G01*
X269675000Y-76675000D02*
G75*
G03*
X267675000Y-78675000I-1J-1999999D01*
G01*
%TO.C,K27*%
X236337500Y-38575000D02*
X241437500Y-38575000D01*
X232437500Y-34375000D02*
X237537500Y-34375000D01*
X232437500Y-34375000D02*
G75*
G03*
X230437500Y-36375000I-1J-1999999D01*
G01*
X236337500Y-38575000D02*
G75*
G03*
X234337500Y-40575000I-1J-1999999D01*
G01*
%TO.C,K22*%
X141087500Y-38575000D02*
X146187500Y-38575000D01*
X137187500Y-34375000D02*
X142287500Y-34375000D01*
X137187500Y-34375000D02*
G75*
G03*
X135187500Y-36375000I-1J-1999999D01*
G01*
X141087500Y-38575000D02*
G75*
G03*
X139087500Y-40575000I-1J-1999999D01*
G01*
%TO.C,K35*%
X127662500Y-53425000D02*
X132762500Y-53425000D01*
X131562500Y-57625000D02*
X136662500Y-57625000D01*
X127662500Y-53425000D02*
G75*
G03*
X125662500Y-55425000I-1J-1999999D01*
G01*
X131562500Y-57625000D02*
G75*
G03*
X129562500Y-59625000I-1J-1999999D01*
G01*
%TO.C,K9*%
X174425000Y-19525000D02*
X179525000Y-19525000D01*
X170525000Y-15325000D02*
X175625000Y-15325000D01*
X170525000Y-15325000D02*
G75*
G03*
X168525000Y-17325000I-1J-1999999D01*
G01*
X174425000Y-19525000D02*
G75*
G03*
X172425000Y-21525000I-1J-1999999D01*
G01*
%TO.C,K29*%
X288725000Y-38575000D02*
X293825000Y-38575000D01*
X284825000Y-34375000D02*
X289925000Y-34375000D01*
X288725000Y-38575000D02*
G75*
G03*
X286725000Y-40575000I-1J-1999999D01*
G01*
X284825000Y-34375000D02*
G75*
G03*
X282825000Y-36375000I-1J-1999999D01*
G01*
%TO.C,K39*%
X203862500Y-53425000D02*
X208962500Y-53425000D01*
X207762500Y-57625000D02*
X212862500Y-57625000D01*
X207762500Y-57625000D02*
G75*
G03*
X205762500Y-59625000I-1J-1999999D01*
G01*
X203862500Y-53425000D02*
G75*
G03*
X201862500Y-55425000I-1J-1999999D01*
G01*
%TO.C,K55*%
X288725000Y-76675000D02*
X293825000Y-76675000D01*
X284825000Y-72475000D02*
X289925000Y-72475000D01*
X288725000Y-76675000D02*
G75*
G03*
X286725000Y-78675000I-1J-1999999D01*
G01*
X284825000Y-72475000D02*
G75*
G03*
X282825000Y-74475000I-1J-1999999D01*
G01*
%TO.C,K6*%
X117275000Y-19525000D02*
X122375000Y-19525000D01*
X113375000Y-15325000D02*
X118475000Y-15325000D01*
X113375000Y-15325000D02*
G75*
G03*
X111375000Y-17325000I-1J-1999999D01*
G01*
X117275000Y-19525000D02*
G75*
G03*
X115275000Y-21525000I-1J-1999999D01*
G01*
%TO.C,K46*%
X60125000Y-76675000D02*
X65225000Y-76675000D01*
X56225000Y-72475000D02*
X61325000Y-72475000D01*
X60125000Y-76675000D02*
G75*
G03*
X58125000Y-78675000I-1J-1999999D01*
G01*
X56225000Y-72475000D02*
G75*
G03*
X54225000Y-74475000I-1J-1999999D01*
G01*
%TO.C,K50*%
X193475000Y-76675000D02*
X198575000Y-76675000D01*
X189575000Y-72475000D02*
X194675000Y-72475000D01*
X193475000Y-76675000D02*
G75*
G03*
X191475000Y-78675000I-1J-1999999D01*
G01*
X189575000Y-72475000D02*
G75*
G03*
X187575000Y-74475000I-1J-1999999D01*
G01*
%TO.C,K25*%
X194337500Y-34375000D02*
X199437500Y-34375000D01*
X198237500Y-38575000D02*
X203337500Y-38575000D01*
X198237500Y-38575000D02*
G75*
G03*
X196237500Y-40575000I-1J-1999999D01*
G01*
X194337500Y-34375000D02*
G75*
G03*
X192337500Y-36375000I-1J-1999999D01*
G01*
%TO.C,K8*%
X151475000Y-15325000D02*
X156575000Y-15325000D01*
X155375000Y-19525000D02*
X160475000Y-19525000D01*
X151475000Y-15325000D02*
G75*
G03*
X149475000Y-17325000I-1J-1999999D01*
G01*
X155375000Y-19525000D02*
G75*
G03*
X153375000Y-21525000I-1J-1999999D01*
G01*
%TO.C,K43*%
X288725000Y-57625000D02*
X293825000Y-57625000D01*
X284825000Y-53425000D02*
X289925000Y-53425000D01*
X284825000Y-53425000D02*
G75*
G03*
X282825000Y-55425000I-1J-1999999D01*
G01*
X288725000Y-57625000D02*
G75*
G03*
X286725000Y-59625000I-1J-1999999D01*
G01*
%TO.C,K16*%
X20506250Y-34375000D02*
X25606250Y-34375000D01*
X24406250Y-38575000D02*
X29506250Y-38575000D01*
X20506250Y-34375000D02*
G75*
G03*
X18506250Y-36375000I-1J-1999999D01*
G01*
X24406250Y-38575000D02*
G75*
G03*
X22406250Y-40575000I-1J-1999999D01*
G01*
%TO.C,K12*%
X231575000Y-19525000D02*
X236675000Y-19525000D01*
X227675000Y-15325000D02*
X232775000Y-15325000D01*
X231575000Y-19525000D02*
G75*
G03*
X229575000Y-21525000I-1J-1999999D01*
G01*
X227675000Y-15325000D02*
G75*
G03*
X225675000Y-17325000I-1J-1999999D01*
G01*
%TO.C,K15*%
X288725000Y-19525000D02*
X293825000Y-19525000D01*
X284825000Y-15325000D02*
X289925000Y-15325000D01*
X288725000Y-19525000D02*
G75*
G03*
X286725000Y-21525000I-1J-1999999D01*
G01*
X284825000Y-15325000D02*
G75*
G03*
X282825000Y-17325000I-1J-1999999D01*
G01*
%TO.C,K41*%
X244343750Y-53425000D02*
X249443750Y-53425000D01*
X248243750Y-57625000D02*
X253343750Y-57625000D01*
X248243750Y-57625000D02*
G75*
G03*
X246243750Y-59625000I-1J-1999999D01*
G01*
X244343750Y-53425000D02*
G75*
G03*
X242343750Y-55425000I-1J-1999999D01*
G01*
%TO.C,K52*%
X227675000Y-72475000D02*
X232775000Y-72475000D01*
X231575000Y-76675000D02*
X236675000Y-76675000D01*
X227675000Y-72475000D02*
G75*
G03*
X225675000Y-74475000I-1J-1999999D01*
G01*
X231575000Y-76675000D02*
G75*
G03*
X229575000Y-78675000I-1J-1999999D01*
G01*
%TO.C,K51*%
X208625000Y-72475000D02*
X213725000Y-72475000D01*
X212525000Y-76675000D02*
X217625000Y-76675000D01*
X212525000Y-76675000D02*
G75*
G03*
X210525000Y-78675000I-1J-1999999D01*
G01*
X208625000Y-72475000D02*
G75*
G03*
X206625000Y-74475000I-1J-1999999D01*
G01*
%TO.C,K32*%
X74412500Y-57625000D02*
X79512500Y-57625000D01*
X70512500Y-53425000D02*
X75612500Y-53425000D01*
X74412500Y-57625000D02*
G75*
G03*
X72412500Y-59625000I-1J-1999999D01*
G01*
X70512500Y-53425000D02*
G75*
G03*
X68512500Y-55425000I-1J-1999999D01*
G01*
%TO.C,K36*%
X146712500Y-53425000D02*
X151812500Y-53425000D01*
X150612500Y-57625000D02*
X155712500Y-57625000D01*
X150612500Y-57625000D02*
G75*
G03*
X148612500Y-59625000I-1J-1999999D01*
G01*
X146712500Y-53425000D02*
G75*
G03*
X144712500Y-55425000I-1J-1999999D01*
G01*
%TO.C,K28*%
X262531250Y-38575000D02*
X267631250Y-38575000D01*
X258631250Y-34375000D02*
X263731250Y-34375000D01*
X258631250Y-34375000D02*
G75*
G03*
X256631250Y-36375000I-1J-1999999D01*
G01*
X262531250Y-38575000D02*
G75*
G03*
X260531250Y-40575000I-1J-1999999D01*
G01*
%TO.C,K14*%
X269675000Y-19525000D02*
X274775000Y-19525000D01*
X265775000Y-15325000D02*
X270875000Y-15325000D01*
X269675000Y-19525000D02*
G75*
G03*
X267675000Y-21525000I-1J-1999999D01*
G01*
X265775000Y-15325000D02*
G75*
G03*
X263775000Y-17325000I-1J-1999999D01*
G01*
%TO.C,K26*%
X213387500Y-34375000D02*
X218487500Y-34375000D01*
X217287500Y-38575000D02*
X222387500Y-38575000D01*
X217287500Y-38575000D02*
G75*
G03*
X215287500Y-40575000I-1J-1999999D01*
G01*
X213387500Y-34375000D02*
G75*
G03*
X211387500Y-36375000I-1J-1999999D01*
G01*
%TO.C,K17*%
X41937500Y-34375000D02*
X47037500Y-34375000D01*
X45837500Y-38575000D02*
X50937500Y-38575000D01*
X45837500Y-38575000D02*
G75*
G03*
X43837500Y-40575000I-1J-1999999D01*
G01*
X41937500Y-34375000D02*
G75*
G03*
X39937500Y-36375000I-1J-1999999D01*
G01*
%TO.C,K13*%
X246725000Y-15325000D02*
X251825000Y-15325000D01*
X250625000Y-19525000D02*
X255725000Y-19525000D01*
X250625000Y-19525000D02*
G75*
G03*
X248625000Y-21525000I-1J-1999999D01*
G01*
X246725000Y-15325000D02*
G75*
G03*
X244725000Y-17325000I-1J-1999999D01*
G01*
%TO.C,K45*%
X41075000Y-76675000D02*
X46175000Y-76675000D01*
X37175000Y-72475000D02*
X42275000Y-72475000D01*
X37175000Y-72475000D02*
G75*
G03*
X35175000Y-74475000I-1J-1999999D01*
G01*
X41075000Y-76675000D02*
G75*
G03*
X39075000Y-78675000I-1J-1999999D01*
G01*
%TO.C,K20*%
X99087500Y-34375000D02*
X104187500Y-34375000D01*
X102987500Y-38575000D02*
X108087500Y-38575000D01*
X102987500Y-38575000D02*
G75*
G03*
X100987500Y-40575000I-1J-1999999D01*
G01*
X99087500Y-34375000D02*
G75*
G03*
X97087500Y-36375000I-1J-1999999D01*
G01*
%TO.C,K24*%
X175287500Y-34375000D02*
X180387500Y-34375000D01*
X179187500Y-38575000D02*
X184287500Y-38575000D01*
X175287500Y-34375000D02*
G75*
G03*
X173287500Y-36375000I-1J-1999999D01*
G01*
X179187500Y-38575000D02*
G75*
G03*
X177187500Y-40575000I-1J-1999999D01*
G01*
%TO.C,K48*%
X139568750Y-72475000D02*
X144668750Y-72475000D01*
X143468750Y-76675000D02*
X148568750Y-76675000D01*
X143468750Y-76675000D02*
G75*
G03*
X141468750Y-78675000I-1J-1999999D01*
G01*
X139568750Y-72475000D02*
G75*
G03*
X137568750Y-74475000I-1J-1999999D01*
G01*
%TO.C,K38*%
X184812500Y-53425000D02*
X189912500Y-53425000D01*
X188712500Y-57625000D02*
X193812500Y-57625000D01*
X184812500Y-53425000D02*
G75*
G03*
X182812500Y-55425000I-1J-1999999D01*
G01*
X188712500Y-57625000D02*
G75*
G03*
X186712500Y-59625000I-1J-1999999D01*
G01*
%TO.C,K4*%
X79175000Y-19525000D02*
X84275000Y-19525000D01*
X75275000Y-15325000D02*
X80375000Y-15325000D01*
X79175000Y-19525000D02*
G75*
G03*
X77175000Y-21525000I-1J-1999999D01*
G01*
X75275000Y-15325000D02*
G75*
G03*
X73275000Y-17325000I-1J-1999999D01*
G01*
%TO.C,K37*%
X165762500Y-53425000D02*
X170862500Y-53425000D01*
X169662500Y-57625000D02*
X174762500Y-57625000D01*
X169662500Y-57625000D02*
G75*
G03*
X167662500Y-59625000I-1J-1999999D01*
G01*
X165762500Y-53425000D02*
G75*
G03*
X163762500Y-55425000I-1J-1999999D01*
G01*
%TO.C,K2*%
X41075000Y-19525000D02*
X46175000Y-19525000D01*
X37175000Y-15325000D02*
X42275000Y-15325000D01*
X41075000Y-19525000D02*
G75*
G03*
X39075000Y-21525000I-1J-1999999D01*
G01*
X37175000Y-15325000D02*
G75*
G03*
X35175000Y-17325000I-1J-1999999D01*
G01*
%TO.C,K42*%
X265775000Y-53425000D02*
X270875000Y-53425000D01*
X269675000Y-57625000D02*
X274775000Y-57625000D01*
X265775000Y-53425000D02*
G75*
G03*
X263775000Y-55425000I-1J-1999999D01*
G01*
X269675000Y-57625000D02*
G75*
G03*
X267675000Y-59625000I-1J-1999999D01*
G01*
%TO.C,K47*%
X95843750Y-76675000D02*
X100943750Y-76675000D01*
X91943750Y-72475000D02*
X97043750Y-72475000D01*
X95843750Y-76675000D02*
G75*
G03*
X93843750Y-78675000I-1J-1999999D01*
G01*
X91943750Y-72475000D02*
G75*
G03*
X89943750Y-74475000I-1J-1999999D01*
G01*
%TO.C,K40*%
X226812500Y-57625000D02*
X231912500Y-57625000D01*
X222912500Y-53425000D02*
X228012500Y-53425000D01*
X222912500Y-53425000D02*
G75*
G03*
X220912500Y-55425000I-1J-1999999D01*
G01*
X226812500Y-57625000D02*
G75*
G03*
X224812500Y-59625000I-1J-1999999D01*
G01*
%TO.C,K23*%
X160137500Y-38575000D02*
X165237500Y-38575000D01*
X156237500Y-34375000D02*
X161337500Y-34375000D01*
X156237500Y-34375000D02*
G75*
G03*
X154237500Y-36375000I-1J-1999999D01*
G01*
X160137500Y-38575000D02*
G75*
G03*
X158137500Y-40575000I-1J-1999999D01*
G01*
%TO.C,K31*%
X55362500Y-57625000D02*
X60462500Y-57625000D01*
X51462500Y-53425000D02*
X56562500Y-53425000D01*
X51462500Y-53425000D02*
G75*
G03*
X49462500Y-55425000I-1J-1999999D01*
G01*
X55362500Y-57625000D02*
G75*
G03*
X53362500Y-59625000I-1J-1999999D01*
G01*
%TO.C,K30*%
X29168750Y-57625000D02*
X34268750Y-57625000D01*
X25268750Y-53425000D02*
X30368750Y-53425000D01*
X25268750Y-53425000D02*
G75*
G03*
X23268750Y-55425000I-1J-1999999D01*
G01*
X29168750Y-57625000D02*
G75*
G03*
X27168750Y-59625000I-1J-1999999D01*
G01*
%TO.C,K21*%
X118137500Y-34375000D02*
X123237500Y-34375000D01*
X122037500Y-38575000D02*
X127137500Y-38575000D01*
X122037500Y-38575000D02*
G75*
G03*
X120037500Y-40575000I-1J-1999999D01*
G01*
X118137500Y-34375000D02*
G75*
G03*
X116137500Y-36375000I-1J-1999999D01*
G01*
%TO.C,K19*%
X83937500Y-38575000D02*
X89037500Y-38575000D01*
X80037500Y-34375000D02*
X85137500Y-34375000D01*
X80037500Y-34375000D02*
G75*
G03*
X78037500Y-36375000I-1J-1999999D01*
G01*
X83937500Y-38575000D02*
G75*
G03*
X81937500Y-40575000I-1J-1999999D01*
G01*
%TO.C,K3*%
X56225000Y-15325000D02*
X61325000Y-15325000D01*
X60125000Y-19525000D02*
X65225000Y-19525000D01*
X56225000Y-15325000D02*
G75*
G03*
X54225000Y-17325000I-1J-1999999D01*
G01*
X60125000Y-19525000D02*
G75*
G03*
X58125000Y-21525000I-1J-1999999D01*
G01*
%TO.C,K33*%
X89562500Y-53425000D02*
X94662500Y-53425000D01*
X93462500Y-57625000D02*
X98562500Y-57625000D01*
X93462500Y-57625000D02*
G75*
G03*
X91462500Y-59625000I-1J-1999999D01*
G01*
X89562500Y-53425000D02*
G75*
G03*
X87562500Y-55425000I-1J-1999999D01*
G01*
%TO.C,K53*%
X246725000Y-72475000D02*
X251825000Y-72475000D01*
X250625000Y-76675000D02*
X255725000Y-76675000D01*
X250625000Y-76675000D02*
G75*
G03*
X248625000Y-78675000I-1J-1999999D01*
G01*
X246725000Y-72475000D02*
G75*
G03*
X244725000Y-74475000I-1J-1999999D01*
G01*
%TO.C,K5*%
X98225000Y-19525000D02*
X103325000Y-19525000D01*
X94325000Y-15325000D02*
X99425000Y-15325000D01*
X98225000Y-19525000D02*
G75*
G03*
X96225000Y-21525000I-1J-1999999D01*
G01*
X94325000Y-15325000D02*
G75*
G03*
X92325000Y-17325000I-1J-1999999D01*
G01*
%TO.C,U1*%
X9962000Y-37846000D02*
X9962000Y-44704000D01*
D10*
X50348000Y-52832000D02*
X50348000Y-29718000D01*
D11*
X9962000Y-44704000D02*
X10978000Y-44704000D01*
D10*
X10978000Y-52832000D02*
X50348000Y-52832000D01*
X10978000Y-29718000D02*
X50348000Y-29718000D01*
D11*
X10978000Y-52832000D02*
X10978000Y-29718000D01*
X9962000Y-44704000D02*
X10978000Y-44704000D01*
X10978000Y-44704000D02*
X10978000Y-44704000D01*
X10978000Y-44704000D02*
X9962000Y-44704000D01*
X9962000Y-44704000D02*
X9962000Y-44704000D01*
X9962000Y-37846000D02*
X10978000Y-37846000D01*
X10978000Y-37846000D02*
X10978000Y-37846000D01*
X10978000Y-37846000D02*
X9962000Y-37846000D01*
X9962000Y-37846000D02*
X9962000Y-37846000D01*
%TD*%
D12*
%TO.C,D39*%
X217283000Y-64135000D03*
D13*
X217283000Y-56515000D03*
%TD*%
D12*
%TO.C,D12*%
X241095500Y-26035000D03*
D13*
X241095500Y-18415000D03*
%TD*%
D12*
%TO.C,D9*%
X183945500Y-26035000D03*
D13*
X183945500Y-18415000D03*
%TD*%
D12*
%TO.C,D54*%
X279195500Y-83185000D03*
D13*
X279195500Y-75565000D03*
%TD*%
D12*
%TO.C,D52*%
X241095500Y-83185000D03*
D13*
X241095500Y-75565000D03*
%TD*%
D12*
%TO.C,D55*%
X298245500Y-83185000D03*
D13*
X298245500Y-75565000D03*
%TD*%
D12*
%TO.C,D47*%
X105364250Y-83185000D03*
D13*
X105364250Y-75565000D03*
%TD*%
D12*
%TO.C,D33*%
X102983000Y-64135000D03*
D13*
X102983000Y-56515000D03*
%TD*%
D12*
%TO.C,D48*%
X152989250Y-83185000D03*
D13*
X152989250Y-75565000D03*
%TD*%
D12*
%TO.C,D37*%
X179183000Y-64135000D03*
D13*
X179183000Y-56515000D03*
%TD*%
D12*
%TO.C,D2*%
X50595500Y-26035000D03*
D13*
X50595500Y-18415000D03*
%TD*%
D12*
%TO.C,D19*%
X93458000Y-45085000D03*
D13*
X93458000Y-37465000D03*
%TD*%
D12*
%TO.C,D1*%
X31545500Y-26035000D03*
D13*
X31545500Y-18415000D03*
%TD*%
D12*
%TO.C,D3*%
X69645500Y-26035000D03*
D13*
X69645500Y-18415000D03*
%TD*%
D12*
%TO.C,D36*%
X160133000Y-64135000D03*
D13*
X160133000Y-56515000D03*
%TD*%
D12*
%TO.C,D14*%
X279195500Y-26035000D03*
D13*
X279195500Y-18415000D03*
%TD*%
D12*
%TO.C,D13*%
X260145500Y-26035000D03*
D13*
X260145500Y-18415000D03*
%TD*%
D12*
%TO.C,D30*%
X38689250Y-64135000D03*
D13*
X38689250Y-56515000D03*
%TD*%
D12*
%TO.C,D25*%
X207758000Y-45085000D03*
D13*
X207758000Y-37465000D03*
%TD*%
D12*
%TO.C,D45*%
X50595500Y-83185000D03*
D13*
X50595500Y-75565000D03*
%TD*%
D12*
%TO.C,D21*%
X131558000Y-45085000D03*
D13*
X131558000Y-37465000D03*
%TD*%
D12*
%TO.C,D34*%
X122033000Y-64135000D03*
D13*
X122033000Y-56515000D03*
%TD*%
D12*
%TO.C,D4*%
X88695500Y-26035000D03*
D13*
X88695500Y-18415000D03*
%TD*%
D12*
%TO.C,D31*%
X64883000Y-64135000D03*
D13*
X64883000Y-56515000D03*
%TD*%
D12*
%TO.C,D5*%
X107745500Y-26035000D03*
D13*
X107745500Y-18415000D03*
%TD*%
D12*
%TO.C,D41*%
X257764250Y-64135000D03*
D13*
X257764250Y-56515000D03*
%TD*%
D12*
%TO.C,D15*%
X298245500Y-26035000D03*
D13*
X298245500Y-18415000D03*
%TD*%
D12*
%TO.C,D35*%
X141083000Y-64135000D03*
D13*
X141083000Y-56515000D03*
%TD*%
D12*
%TO.C,D38*%
X198233000Y-64135000D03*
D13*
X198233000Y-56515000D03*
%TD*%
D12*
%TO.C,D16*%
X33926750Y-45085000D03*
D13*
X33926750Y-37465000D03*
%TD*%
D12*
%TO.C,D26*%
X226808000Y-45085000D03*
D13*
X226808000Y-37465000D03*
%TD*%
D12*
%TO.C,D51*%
X222045500Y-83185000D03*
D13*
X222045500Y-75565000D03*
%TD*%
D12*
%TO.C,D53*%
X260145500Y-83185000D03*
D13*
X260145500Y-75565000D03*
%TD*%
D12*
%TO.C,D22*%
X150608000Y-45085000D03*
D13*
X150608000Y-37465000D03*
%TD*%
D12*
%TO.C,D27*%
X245858000Y-45085000D03*
D13*
X245858000Y-37465000D03*
%TD*%
D12*
%TO.C,D44*%
X31545500Y-83185000D03*
D13*
X31545500Y-75565000D03*
%TD*%
D12*
%TO.C,D42*%
X279195500Y-64135000D03*
D13*
X279195500Y-56515000D03*
%TD*%
D12*
%TO.C,D17*%
X55358000Y-45085000D03*
D13*
X55358000Y-37465000D03*
%TD*%
D12*
%TO.C,D46*%
X69645500Y-83185000D03*
D13*
X69645500Y-75565000D03*
%TD*%
D12*
%TO.C,D32*%
X83933000Y-64135000D03*
D13*
X83933000Y-56515000D03*
%TD*%
D12*
%TO.C,D23*%
X169658000Y-45085000D03*
D13*
X169658000Y-37465000D03*
%TD*%
D12*
%TO.C,D11*%
X222045500Y-26035000D03*
D13*
X222045500Y-18415000D03*
%TD*%
D12*
%TO.C,D29*%
X298245500Y-45085000D03*
D13*
X298245500Y-37465000D03*
%TD*%
D12*
%TO.C,D6*%
X126795500Y-26035000D03*
D13*
X126795500Y-18415000D03*
%TD*%
D12*
%TO.C,D8*%
X164895500Y-26035000D03*
D13*
X164895500Y-18415000D03*
%TD*%
D12*
%TO.C,D28*%
X272051750Y-45085000D03*
D13*
X272051750Y-37465000D03*
%TD*%
D12*
%TO.C,D50*%
X202995500Y-83185000D03*
D13*
X202995500Y-75565000D03*
%TD*%
D12*
%TO.C,D24*%
X188708000Y-45085000D03*
D13*
X188708000Y-37465000D03*
%TD*%
D12*
%TO.C,D43*%
X298245500Y-64135000D03*
D13*
X298245500Y-56515000D03*
%TD*%
D12*
%TO.C,D49*%
X183945500Y-83185000D03*
D13*
X183945500Y-75565000D03*
%TD*%
D12*
%TO.C,D10*%
X202995500Y-26035000D03*
D13*
X202995500Y-18415000D03*
%TD*%
D12*
%TO.C,D18*%
X74408000Y-45085000D03*
D13*
X74408000Y-37465000D03*
%TD*%
D12*
%TO.C,D20*%
X112508000Y-45085000D03*
D13*
X112508000Y-37465000D03*
%TD*%
D12*
%TO.C,D7*%
X145845500Y-26035000D03*
D13*
X145845500Y-18415000D03*
%TD*%
D12*
%TO.C,D40*%
X236333000Y-64135000D03*
D13*
X236333000Y-56515000D03*
%TD*%
D14*
%TO.C,U1*%
X21138000Y-30988000D03*
D15*
X23678000Y-30988000D03*
X26218000Y-30988000D03*
X28758000Y-30988000D03*
X31298000Y-30988000D03*
X33838000Y-30988000D03*
X36378000Y-30988000D03*
X38918000Y-30988000D03*
X41458000Y-30988000D03*
X43998000Y-30988000D03*
X46538000Y-30988000D03*
X49078000Y-30988000D03*
X49078000Y-51562000D03*
X46538000Y-51562000D03*
X43998000Y-51562000D03*
X41458000Y-51562000D03*
X38918000Y-51562000D03*
X36378000Y-51562000D03*
X33838000Y-51562000D03*
X31298000Y-51562000D03*
X28758000Y-51562000D03*
X26218000Y-51562000D03*
X23678000Y-51562000D03*
X21138000Y-51562000D03*
%TD*%
%LPC*%
D16*
%TO.C,K44*%
X27305000Y-79375000D03*
X17145000Y-79375000D03*
D17*
X22225000Y-79375000D03*
D18*
X24765000Y-74295000D03*
X18415000Y-76835000D03*
D19*
X15140000Y-76835000D03*
X28067000Y-74295000D03*
%TD*%
D12*
%TO.C,D39*%
X217283000Y-64135000D03*
D13*
X217283000Y-56515000D03*
%TD*%
D16*
%TO.C,K49*%
X169545000Y-79375000D03*
D17*
X174625000Y-79375000D03*
D18*
X170815000Y-76835000D03*
X177165000Y-74295000D03*
D16*
X179705000Y-79375000D03*
D19*
X167540000Y-76835000D03*
X180467000Y-74295000D03*
%TD*%
D18*
%TO.C,K1*%
X24765000Y-17145000D03*
D16*
X27305000Y-22225000D03*
D18*
X18415000Y-19685000D03*
D17*
X22225000Y-22225000D03*
D16*
X17145000Y-22225000D03*
D19*
X15140000Y-19685000D03*
X28067000Y-17145000D03*
%TD*%
D18*
%TO.C,K7*%
X139065000Y-17145000D03*
X132715000Y-19685000D03*
D16*
X141605000Y-22225000D03*
X131445000Y-22225000D03*
D17*
X136525000Y-22225000D03*
D19*
X129440000Y-19685000D03*
X142367000Y-17145000D03*
%TD*%
D12*
%TO.C,D12*%
X241095500Y-26035000D03*
D13*
X241095500Y-18415000D03*
%TD*%
D16*
%TO.C,K10*%
X198755000Y-22225000D03*
D18*
X189865000Y-19685000D03*
D16*
X188595000Y-22225000D03*
D18*
X196215000Y-17145000D03*
D17*
X193675000Y-22225000D03*
D19*
X186590000Y-19685000D03*
X199517000Y-17145000D03*
%TD*%
D20*
%TO.C,REF\u002A\u002A*%
X131730750Y-87600000D03*
X155606750Y-87600000D03*
D21*
X131730750Y-72390000D03*
X155606750Y-72390000D03*
%TD*%
D12*
%TO.C,D9*%
X183945500Y-26035000D03*
D13*
X183945500Y-18415000D03*
%TD*%
D12*
%TO.C,D54*%
X279195500Y-83185000D03*
D13*
X279195500Y-75565000D03*
%TD*%
D12*
%TO.C,D52*%
X241095500Y-83185000D03*
D13*
X241095500Y-75565000D03*
%TD*%
D16*
%TO.C,K34*%
X107632500Y-60325000D03*
X117792500Y-60325000D03*
D17*
X112712500Y-60325000D03*
D18*
X115252500Y-55245000D03*
X108902500Y-57785000D03*
D19*
X105627500Y-57785000D03*
X118554500Y-55245000D03*
%TD*%
D18*
%TO.C,K11*%
X215265000Y-17145000D03*
D16*
X217805000Y-22225000D03*
D17*
X212725000Y-22225000D03*
D16*
X207645000Y-22225000D03*
D18*
X208915000Y-19685000D03*
D19*
X205640000Y-19685000D03*
X218567000Y-17145000D03*
%TD*%
D12*
%TO.C,D55*%
X298245500Y-83185000D03*
D13*
X298245500Y-75565000D03*
%TD*%
D12*
%TO.C,D47*%
X105364250Y-83185000D03*
D13*
X105364250Y-75565000D03*
%TD*%
D12*
%TO.C,D33*%
X102983000Y-64135000D03*
D13*
X102983000Y-56515000D03*
%TD*%
D12*
%TO.C,D48*%
X152989250Y-83185000D03*
D13*
X152989250Y-75565000D03*
%TD*%
D16*
%TO.C,K18*%
X60007500Y-41275000D03*
X70167500Y-41275000D03*
D17*
X65087500Y-41275000D03*
D18*
X67627500Y-36195000D03*
X61277500Y-38735000D03*
D19*
X58002500Y-38735000D03*
X70929500Y-36195000D03*
%TD*%
D18*
%TO.C,K54*%
X272415000Y-74295000D03*
D17*
X269875000Y-79375000D03*
D16*
X264795000Y-79375000D03*
D18*
X266065000Y-76835000D03*
D16*
X274955000Y-79375000D03*
D19*
X262790000Y-76835000D03*
X275717000Y-74295000D03*
%TD*%
D12*
%TO.C,D37*%
X179183000Y-64135000D03*
D13*
X179183000Y-56515000D03*
%TD*%
D12*
%TO.C,D2*%
X50595500Y-26035000D03*
D13*
X50595500Y-18415000D03*
%TD*%
D12*
%TO.C,D19*%
X93458000Y-45085000D03*
D13*
X93458000Y-37465000D03*
%TD*%
D12*
%TO.C,D1*%
X31545500Y-26035000D03*
D13*
X31545500Y-18415000D03*
%TD*%
D12*
%TO.C,D3*%
X69645500Y-26035000D03*
D13*
X69645500Y-18415000D03*
%TD*%
D18*
%TO.C,K27*%
X232727500Y-38735000D03*
X239077500Y-36195000D03*
D16*
X241617500Y-41275000D03*
X231457500Y-41275000D03*
D17*
X236537500Y-41275000D03*
D19*
X229452500Y-38735000D03*
X242379500Y-36195000D03*
%TD*%
D18*
%TO.C,K22*%
X137477500Y-38735000D03*
D16*
X146367500Y-41275000D03*
X136207500Y-41275000D03*
D17*
X141287500Y-41275000D03*
D18*
X143827500Y-36195000D03*
D19*
X134202500Y-38735000D03*
X147129500Y-36195000D03*
%TD*%
D12*
%TO.C,D36*%
X160133000Y-64135000D03*
D13*
X160133000Y-56515000D03*
%TD*%
D12*
%TO.C,D14*%
X279195500Y-26035000D03*
D13*
X279195500Y-18415000D03*
%TD*%
D18*
%TO.C,K35*%
X127952500Y-57785000D03*
X134302500Y-55245000D03*
D16*
X126682500Y-60325000D03*
D17*
X131762500Y-60325000D03*
D16*
X136842500Y-60325000D03*
D19*
X124677500Y-57785000D03*
X137604500Y-55245000D03*
%TD*%
D16*
%TO.C,K9*%
X179705000Y-22225000D03*
X169545000Y-22225000D03*
D18*
X170815000Y-19685000D03*
D17*
X174625000Y-22225000D03*
D18*
X177165000Y-17145000D03*
D19*
X167540000Y-19685000D03*
X180467000Y-17145000D03*
%TD*%
D12*
%TO.C,D13*%
X260145500Y-26035000D03*
D13*
X260145500Y-18415000D03*
%TD*%
D12*
%TO.C,D30*%
X38689250Y-64135000D03*
D13*
X38689250Y-56515000D03*
%TD*%
D18*
%TO.C,K29*%
X285115000Y-38735000D03*
D16*
X283845000Y-41275000D03*
D17*
X288925000Y-41275000D03*
D16*
X294005000Y-41275000D03*
D18*
X291465000Y-36195000D03*
D19*
X281840000Y-38735000D03*
X294767000Y-36195000D03*
%TD*%
D17*
%TO.C,K39*%
X207962500Y-60325000D03*
D18*
X204152500Y-57785000D03*
D16*
X202882500Y-60325000D03*
D18*
X210502500Y-55245000D03*
D16*
X213042500Y-60325000D03*
D19*
X200877500Y-57785000D03*
X213804500Y-55245000D03*
%TD*%
D12*
%TO.C,D25*%
X207758000Y-45085000D03*
D13*
X207758000Y-37465000D03*
%TD*%
D18*
%TO.C,K55*%
X291465000Y-74295000D03*
D17*
X288925000Y-79375000D03*
D16*
X294005000Y-79375000D03*
X283845000Y-79375000D03*
D18*
X285115000Y-76835000D03*
D19*
X281840000Y-76835000D03*
X294767000Y-74295000D03*
%TD*%
D12*
%TO.C,D45*%
X50595500Y-83185000D03*
D13*
X50595500Y-75565000D03*
%TD*%
D16*
%TO.C,K6*%
X112395000Y-22225000D03*
D18*
X113665000Y-19685000D03*
X120015000Y-17145000D03*
D17*
X117475000Y-22225000D03*
D16*
X122555000Y-22225000D03*
D19*
X110390000Y-19685000D03*
X123317000Y-17145000D03*
%TD*%
D12*
%TO.C,D21*%
X131558000Y-45085000D03*
D13*
X131558000Y-37465000D03*
%TD*%
D18*
%TO.C,K46*%
X56515000Y-76835000D03*
X62865000Y-74295000D03*
D16*
X65405000Y-79375000D03*
D17*
X60325000Y-79375000D03*
D16*
X55245000Y-79375000D03*
D19*
X53240000Y-76835000D03*
X66167000Y-74295000D03*
%TD*%
D18*
%TO.C,K50*%
X189865000Y-76835000D03*
D16*
X188595000Y-79375000D03*
D17*
X193675000Y-79375000D03*
D16*
X198755000Y-79375000D03*
D18*
X196215000Y-74295000D03*
D19*
X186590000Y-76835000D03*
X199517000Y-74295000D03*
%TD*%
D12*
%TO.C,D34*%
X122033000Y-64135000D03*
D13*
X122033000Y-56515000D03*
%TD*%
D16*
%TO.C,K25*%
X203517500Y-41275000D03*
X193357500Y-41275000D03*
D18*
X200977500Y-36195000D03*
D17*
X198437500Y-41275000D03*
D18*
X194627500Y-38735000D03*
D19*
X191352500Y-38735000D03*
X204279500Y-36195000D03*
%TD*%
D12*
%TO.C,D4*%
X88695500Y-26035000D03*
D13*
X88695500Y-18415000D03*
%TD*%
D12*
%TO.C,D31*%
X64883000Y-64135000D03*
D13*
X64883000Y-56515000D03*
%TD*%
D12*
%TO.C,D5*%
X107745500Y-26035000D03*
D13*
X107745500Y-18415000D03*
%TD*%
D12*
%TO.C,D41*%
X257764250Y-64135000D03*
D13*
X257764250Y-56515000D03*
%TD*%
D12*
%TO.C,D15*%
X298245500Y-26035000D03*
D13*
X298245500Y-18415000D03*
%TD*%
D12*
%TO.C,D35*%
X141083000Y-64135000D03*
D13*
X141083000Y-56515000D03*
%TD*%
D12*
%TO.C,D38*%
X198233000Y-64135000D03*
D13*
X198233000Y-56515000D03*
%TD*%
D12*
%TO.C,D16*%
X33926750Y-45085000D03*
D13*
X33926750Y-37465000D03*
%TD*%
D17*
%TO.C,K8*%
X155575000Y-22225000D03*
D18*
X158115000Y-17145000D03*
D16*
X160655000Y-22225000D03*
D18*
X151765000Y-19685000D03*
D16*
X150495000Y-22225000D03*
D19*
X148490000Y-19685000D03*
X161417000Y-17145000D03*
%TD*%
D12*
%TO.C,D26*%
X226808000Y-45085000D03*
D13*
X226808000Y-37465000D03*
%TD*%
D18*
%TO.C,K43*%
X285115000Y-57785000D03*
D16*
X283845000Y-60325000D03*
X294005000Y-60325000D03*
D17*
X288925000Y-60325000D03*
D18*
X291465000Y-55245000D03*
D19*
X281840000Y-57785000D03*
X294767000Y-55245000D03*
%TD*%
D16*
%TO.C,K16*%
X29686250Y-41275000D03*
X19526250Y-41275000D03*
D18*
X27146250Y-36195000D03*
X20796250Y-38735000D03*
D17*
X24606250Y-41275000D03*
D19*
X17521250Y-38735000D03*
X30448250Y-36195000D03*
%TD*%
D12*
%TO.C,D51*%
X222045500Y-83185000D03*
D13*
X222045500Y-75565000D03*
%TD*%
D18*
%TO.C,K12*%
X227965000Y-19685000D03*
D17*
X231775000Y-22225000D03*
D16*
X236855000Y-22225000D03*
X226695000Y-22225000D03*
D18*
X234315000Y-17145000D03*
D19*
X224690000Y-19685000D03*
X237617000Y-17145000D03*
%TD*%
D18*
%TO.C,K15*%
X291465000Y-17145000D03*
X285115000Y-19685000D03*
D17*
X288925000Y-22225000D03*
D16*
X294005000Y-22225000D03*
X283845000Y-22225000D03*
D19*
X281840000Y-19685000D03*
X294767000Y-17145000D03*
%TD*%
D12*
%TO.C,D53*%
X260145500Y-83185000D03*
D13*
X260145500Y-75565000D03*
%TD*%
D16*
%TO.C,K41*%
X243363750Y-60325000D03*
D18*
X244633750Y-57785000D03*
D16*
X253523750Y-60325000D03*
D18*
X250983750Y-55245000D03*
D17*
X248443750Y-60325000D03*
D19*
X241358750Y-57785000D03*
X254285750Y-55245000D03*
%TD*%
D12*
%TO.C,D22*%
X150608000Y-45085000D03*
D13*
X150608000Y-37465000D03*
%TD*%
D17*
%TO.C,K52*%
X231775000Y-79375000D03*
D18*
X227965000Y-76835000D03*
D16*
X226695000Y-79375000D03*
X236855000Y-79375000D03*
D18*
X234315000Y-74295000D03*
D19*
X224690000Y-76835000D03*
X237617000Y-74295000D03*
%TD*%
D12*
%TO.C,D27*%
X245858000Y-45085000D03*
D13*
X245858000Y-37465000D03*
%TD*%
D12*
%TO.C,D44*%
X31545500Y-83185000D03*
D13*
X31545500Y-75565000D03*
%TD*%
D16*
%TO.C,K51*%
X217805000Y-79375000D03*
X207645000Y-79375000D03*
D18*
X208915000Y-76835000D03*
D17*
X212725000Y-79375000D03*
D18*
X215265000Y-74295000D03*
D19*
X205640000Y-76835000D03*
X218567000Y-74295000D03*
%TD*%
D12*
%TO.C,D42*%
X279195500Y-64135000D03*
D13*
X279195500Y-56515000D03*
%TD*%
D18*
%TO.C,K32*%
X77152500Y-55245000D03*
D17*
X74612500Y-60325000D03*
D18*
X70802500Y-57785000D03*
D16*
X69532500Y-60325000D03*
X79692500Y-60325000D03*
D19*
X67527500Y-57785000D03*
X80454500Y-55245000D03*
%TD*%
D17*
%TO.C,K36*%
X150812500Y-60325000D03*
D16*
X155892500Y-60325000D03*
X145732500Y-60325000D03*
D18*
X153352500Y-55245000D03*
X147002500Y-57785000D03*
D19*
X143727500Y-57785000D03*
X156654500Y-55245000D03*
%TD*%
D17*
%TO.C,K28*%
X262731250Y-41275000D03*
D16*
X267811250Y-41275000D03*
X257651250Y-41275000D03*
D18*
X265271250Y-36195000D03*
X258921250Y-38735000D03*
D19*
X255646250Y-38735000D03*
X268573250Y-36195000D03*
%TD*%
D12*
%TO.C,D17*%
X55358000Y-45085000D03*
D13*
X55358000Y-37465000D03*
%TD*%
D16*
%TO.C,K14*%
X264795000Y-22225000D03*
D18*
X272415000Y-17145000D03*
D16*
X274955000Y-22225000D03*
D18*
X266065000Y-19685000D03*
D17*
X269875000Y-22225000D03*
D19*
X262790000Y-19685000D03*
X275717000Y-17145000D03*
%TD*%
D12*
%TO.C,D46*%
X69645500Y-83185000D03*
D13*
X69645500Y-75565000D03*
%TD*%
D16*
%TO.C,K26*%
X212407500Y-41275000D03*
X222567500Y-41275000D03*
D18*
X213677500Y-38735000D03*
D17*
X217487500Y-41275000D03*
D18*
X220027500Y-36195000D03*
D19*
X210402500Y-38735000D03*
X223329500Y-36195000D03*
%TD*%
D17*
%TO.C,K17*%
X46037500Y-41275000D03*
D18*
X42227500Y-38735000D03*
D16*
X51117500Y-41275000D03*
X40957500Y-41275000D03*
D18*
X48577500Y-36195000D03*
D19*
X38952500Y-38735000D03*
X51879500Y-36195000D03*
%TD*%
D16*
%TO.C,K13*%
X245745000Y-22225000D03*
D18*
X253365000Y-17145000D03*
X247015000Y-19685000D03*
D16*
X255905000Y-22225000D03*
D17*
X250825000Y-22225000D03*
D19*
X243740000Y-19685000D03*
X256667000Y-17145000D03*
%TD*%
D12*
%TO.C,D32*%
X83933000Y-64135000D03*
D13*
X83933000Y-56515000D03*
%TD*%
D12*
%TO.C,D23*%
X169658000Y-45085000D03*
D13*
X169658000Y-37465000D03*
%TD*%
D16*
%TO.C,K45*%
X36195000Y-79375000D03*
D18*
X37465000Y-76835000D03*
X43815000Y-74295000D03*
D17*
X41275000Y-79375000D03*
D16*
X46355000Y-79375000D03*
D19*
X34190000Y-76835000D03*
X47117000Y-74295000D03*
%TD*%
D18*
%TO.C,K20*%
X105727500Y-36195000D03*
D16*
X98107500Y-41275000D03*
D17*
X103187500Y-41275000D03*
D16*
X108267500Y-41275000D03*
D18*
X99377500Y-38735000D03*
D19*
X96102500Y-38735000D03*
X109029500Y-36195000D03*
%TD*%
D12*
%TO.C,D11*%
X222045500Y-26035000D03*
D13*
X222045500Y-18415000D03*
%TD*%
D18*
%TO.C,K24*%
X181927500Y-36195000D03*
D17*
X179387500Y-41275000D03*
D18*
X175577500Y-38735000D03*
D16*
X184467500Y-41275000D03*
X174307500Y-41275000D03*
D19*
X172302500Y-38735000D03*
X185229500Y-36195000D03*
%TD*%
D16*
%TO.C,K48*%
X138588750Y-79375000D03*
D18*
X146208750Y-74295000D03*
D17*
X143668750Y-79375000D03*
D18*
X139858750Y-76835000D03*
D16*
X148748750Y-79375000D03*
D19*
X136583750Y-76835000D03*
X149510750Y-74295000D03*
%TD*%
D16*
%TO.C,K38*%
X183832500Y-60325000D03*
X193992500Y-60325000D03*
D18*
X185102500Y-57785000D03*
X191452500Y-55245000D03*
D17*
X188912500Y-60325000D03*
D19*
X181827500Y-57785000D03*
X194754500Y-55245000D03*
%TD*%
D12*
%TO.C,D29*%
X298245500Y-45085000D03*
D13*
X298245500Y-37465000D03*
%TD*%
D12*
%TO.C,D6*%
X126795500Y-26035000D03*
D13*
X126795500Y-18415000D03*
%TD*%
D12*
%TO.C,D8*%
X164895500Y-26035000D03*
D13*
X164895500Y-18415000D03*
%TD*%
D12*
%TO.C,D28*%
X272051750Y-45085000D03*
D13*
X272051750Y-37465000D03*
%TD*%
D17*
%TO.C,K4*%
X79375000Y-22225000D03*
D18*
X81915000Y-17145000D03*
X75565000Y-19685000D03*
D16*
X84455000Y-22225000D03*
X74295000Y-22225000D03*
D19*
X72290000Y-19685000D03*
X85217000Y-17145000D03*
%TD*%
D12*
%TO.C,D50*%
X202995500Y-83185000D03*
D13*
X202995500Y-75565000D03*
%TD*%
D17*
%TO.C,K37*%
X169862500Y-60325000D03*
D16*
X164782500Y-60325000D03*
D18*
X172402500Y-55245000D03*
D16*
X174942500Y-60325000D03*
D18*
X166052500Y-57785000D03*
D19*
X162777500Y-57785000D03*
X175704500Y-55245000D03*
%TD*%
D21*
%TO.C,REF\u002A\u002A*%
X107981750Y-72390000D03*
X84105750Y-72390000D03*
D20*
X84105750Y-87600000D03*
X107981750Y-87600000D03*
%TD*%
D16*
%TO.C,K2*%
X46355000Y-22225000D03*
D18*
X43815000Y-17145000D03*
D17*
X41275000Y-22225000D03*
D16*
X36195000Y-22225000D03*
D18*
X37465000Y-19685000D03*
D19*
X34190000Y-19685000D03*
X47117000Y-17145000D03*
%TD*%
D12*
%TO.C,D24*%
X188708000Y-45085000D03*
D13*
X188708000Y-37465000D03*
%TD*%
D18*
%TO.C,K42*%
X272415000Y-55245000D03*
D16*
X274955000Y-60325000D03*
X264795000Y-60325000D03*
D18*
X266065000Y-57785000D03*
D17*
X269875000Y-60325000D03*
D19*
X262790000Y-57785000D03*
X275717000Y-55245000D03*
%TD*%
D18*
%TO.C,K47*%
X98583750Y-74295000D03*
D17*
X96043750Y-79375000D03*
D16*
X90963750Y-79375000D03*
D18*
X92233750Y-76835000D03*
D16*
X101123750Y-79375000D03*
D19*
X88958750Y-76835000D03*
X101885750Y-74295000D03*
%TD*%
D18*
%TO.C,K40*%
X229552500Y-55245000D03*
D16*
X221932500Y-60325000D03*
D17*
X227012500Y-60325000D03*
D18*
X223202500Y-57785000D03*
D16*
X232092500Y-60325000D03*
D19*
X219927500Y-57785000D03*
X232854500Y-55245000D03*
%TD*%
D16*
%TO.C,K23*%
X165417500Y-41275000D03*
D18*
X162877500Y-36195000D03*
D16*
X155257500Y-41275000D03*
D17*
X160337500Y-41275000D03*
D18*
X156527500Y-38735000D03*
D19*
X153252500Y-38735000D03*
X166179500Y-36195000D03*
%TD*%
D16*
%TO.C,K31*%
X50482500Y-60325000D03*
D17*
X55562500Y-60325000D03*
D16*
X60642500Y-60325000D03*
D18*
X51752500Y-57785000D03*
X58102500Y-55245000D03*
D19*
X48477500Y-57785000D03*
X61404500Y-55245000D03*
%TD*%
D17*
%TO.C,K30*%
X29368750Y-60325000D03*
D16*
X34448750Y-60325000D03*
X24288750Y-60325000D03*
D18*
X31908750Y-55245000D03*
X25558750Y-57785000D03*
D19*
X22283750Y-57785000D03*
X35210750Y-55245000D03*
%TD*%
D16*
%TO.C,K21*%
X127317500Y-41275000D03*
D18*
X118427500Y-38735000D03*
D16*
X117157500Y-41275000D03*
D17*
X122237500Y-41275000D03*
D18*
X124777500Y-36195000D03*
D19*
X115152500Y-38735000D03*
X128079500Y-36195000D03*
%TD*%
D18*
%TO.C,K19*%
X80327500Y-38735000D03*
D17*
X84137500Y-41275000D03*
D18*
X86677500Y-36195000D03*
D16*
X79057500Y-41275000D03*
X89217500Y-41275000D03*
D19*
X77052500Y-38735000D03*
X89979500Y-36195000D03*
%TD*%
D12*
%TO.C,D43*%
X298245500Y-64135000D03*
D13*
X298245500Y-56515000D03*
%TD*%
D17*
%TO.C,K3*%
X60325000Y-22225000D03*
D16*
X55245000Y-22225000D03*
X65405000Y-22225000D03*
D18*
X56515000Y-19685000D03*
X62865000Y-17145000D03*
D19*
X53240000Y-19685000D03*
X66167000Y-17145000D03*
%TD*%
D18*
%TO.C,K33*%
X96202500Y-55245000D03*
D16*
X88582500Y-60325000D03*
D17*
X93662500Y-60325000D03*
D18*
X89852500Y-57785000D03*
D16*
X98742500Y-60325000D03*
D19*
X86577500Y-57785000D03*
X99504500Y-55245000D03*
%TD*%
D12*
%TO.C,D49*%
X183945500Y-83185000D03*
D13*
X183945500Y-75565000D03*
%TD*%
D17*
%TO.C,K53*%
X250825000Y-79375000D03*
D16*
X255905000Y-79375000D03*
D18*
X253365000Y-74295000D03*
D16*
X245745000Y-79375000D03*
D18*
X247015000Y-76835000D03*
D19*
X243740000Y-76835000D03*
X256667000Y-74295000D03*
%TD*%
D16*
%TO.C,K5*%
X103505000Y-22225000D03*
X93345000Y-22225000D03*
D18*
X94615000Y-19685000D03*
D17*
X98425000Y-22225000D03*
D18*
X100965000Y-17145000D03*
D19*
X91340000Y-19685000D03*
X104267000Y-17145000D03*
%TD*%
D12*
%TO.C,D10*%
X202995500Y-26035000D03*
D13*
X202995500Y-18415000D03*
%TD*%
D12*
%TO.C,D18*%
X74408000Y-45085000D03*
D13*
X74408000Y-37465000D03*
%TD*%
D12*
%TO.C,D20*%
X112508000Y-45085000D03*
D13*
X112508000Y-37465000D03*
%TD*%
D12*
%TO.C,D7*%
X145845500Y-26035000D03*
D13*
X145845500Y-18415000D03*
%TD*%
D12*
%TO.C,D40*%
X236333000Y-64135000D03*
D13*
X236333000Y-56515000D03*
%TD*%
D14*
%TO.C,U1*%
X21138000Y-30988000D03*
D15*
X23678000Y-30988000D03*
X26218000Y-30988000D03*
X28758000Y-30988000D03*
X31298000Y-30988000D03*
X33838000Y-30988000D03*
X36378000Y-30988000D03*
X38918000Y-30988000D03*
X41458000Y-30988000D03*
X43998000Y-30988000D03*
X46538000Y-30988000D03*
X49078000Y-30988000D03*
X49078000Y-51562000D03*
X46538000Y-51562000D03*
X43998000Y-51562000D03*
X41458000Y-51562000D03*
X38918000Y-51562000D03*
X36378000Y-51562000D03*
X33838000Y-51562000D03*
X31298000Y-51562000D03*
X28758000Y-51562000D03*
X26218000Y-51562000D03*
X23678000Y-51562000D03*
X21138000Y-51562000D03*
%TD*%
M02*
