%TF.GenerationSoftware,KiCad,Pcbnew,(6.0.10)*%
%TF.CreationDate,2023-01-15T11:01:46+05:00*%
%TF.ProjectId,key55,6b657935-352e-46b6-9963-61645f706362,rev?*%
%TF.SameCoordinates,Original*%
%TF.FileFunction,Soldermask,Top*%
%TF.FilePolarity,Negative*%
%FSLAX46Y46*%
G04 Gerber Fmt 4.6, Leading zero omitted, Abs format (unit mm)*
G04 Created by KiCad (PCBNEW (6.0.10)) date 2023-01-15 11:01:46*
%MOMM*%
%LPD*%
G01*
G04 APERTURE LIST*
%ADD10C,1.750000*%
%ADD11C,4.000000*%
%ADD12C,3.050000*%
%ADD13C,1.778000*%
%ADD14R,1.778000X1.778000*%
%ADD15C,3.987800*%
%ADD16C,3.048000*%
%ADD17R,1.600000X1.600000*%
%ADD18C,1.600000*%
G04 APERTURE END LIST*
D10*
%TO.C,K44*%
X27305000Y-79375000D03*
X17145000Y-79375000D03*
D11*
X22225000Y-79375000D03*
D12*
X24765000Y-74295000D03*
X18415000Y-76835000D03*
%TD*%
D13*
%TO.C,D39*%
X217283000Y-64135000D03*
D14*
X217283000Y-56515000D03*
%TD*%
D10*
%TO.C,K49*%
X169545000Y-79375000D03*
D11*
X174625000Y-79375000D03*
D12*
X170815000Y-76835000D03*
X177165000Y-74295000D03*
D10*
X179705000Y-79375000D03*
%TD*%
D12*
%TO.C,K1*%
X24765000Y-17145000D03*
D10*
X27305000Y-22225000D03*
D12*
X18415000Y-19685000D03*
D11*
X22225000Y-22225000D03*
D10*
X17145000Y-22225000D03*
%TD*%
D12*
%TO.C,K7*%
X139065000Y-17145000D03*
X132715000Y-19685000D03*
D10*
X141605000Y-22225000D03*
X131445000Y-22225000D03*
D11*
X136525000Y-22225000D03*
%TD*%
D13*
%TO.C,D12*%
X241095500Y-26035000D03*
D14*
X241095500Y-18415000D03*
%TD*%
D10*
%TO.C,K10*%
X198755000Y-22225000D03*
D12*
X189865000Y-19685000D03*
D10*
X188595000Y-22225000D03*
D12*
X196215000Y-17145000D03*
D11*
X193675000Y-22225000D03*
%TD*%
D15*
%TO.C,REF\u002A\u002A*%
X131730750Y-87600000D03*
X155606750Y-87600000D03*
D16*
X131730750Y-72390000D03*
X155606750Y-72390000D03*
%TD*%
D13*
%TO.C,D9*%
X183945500Y-26035000D03*
D14*
X183945500Y-18415000D03*
%TD*%
D13*
%TO.C,D54*%
X279195500Y-83185000D03*
D14*
X279195500Y-75565000D03*
%TD*%
D13*
%TO.C,D52*%
X241095500Y-83185000D03*
D14*
X241095500Y-75565000D03*
%TD*%
D10*
%TO.C,K34*%
X107632500Y-60325000D03*
X117792500Y-60325000D03*
D11*
X112712500Y-60325000D03*
D12*
X115252500Y-55245000D03*
X108902500Y-57785000D03*
%TD*%
%TO.C,K11*%
X215265000Y-17145000D03*
D10*
X217805000Y-22225000D03*
D11*
X212725000Y-22225000D03*
D10*
X207645000Y-22225000D03*
D12*
X208915000Y-19685000D03*
%TD*%
D13*
%TO.C,D55*%
X298245500Y-83185000D03*
D14*
X298245500Y-75565000D03*
%TD*%
D13*
%TO.C,D47*%
X105364250Y-83185000D03*
D14*
X105364250Y-75565000D03*
%TD*%
D13*
%TO.C,D33*%
X102983000Y-64135000D03*
D14*
X102983000Y-56515000D03*
%TD*%
D13*
%TO.C,D48*%
X152989250Y-83185000D03*
D14*
X152989250Y-75565000D03*
%TD*%
D10*
%TO.C,K18*%
X60007500Y-41275000D03*
X70167500Y-41275000D03*
D11*
X65087500Y-41275000D03*
D12*
X67627500Y-36195000D03*
X61277500Y-38735000D03*
%TD*%
%TO.C,K54*%
X272415000Y-74295000D03*
D11*
X269875000Y-79375000D03*
D10*
X264795000Y-79375000D03*
D12*
X266065000Y-76835000D03*
D10*
X274955000Y-79375000D03*
%TD*%
D13*
%TO.C,D37*%
X179183000Y-64135000D03*
D14*
X179183000Y-56515000D03*
%TD*%
D13*
%TO.C,D2*%
X50595500Y-26035000D03*
D14*
X50595500Y-18415000D03*
%TD*%
D13*
%TO.C,D19*%
X93458000Y-45085000D03*
D14*
X93458000Y-37465000D03*
%TD*%
D13*
%TO.C,D1*%
X31545500Y-26035000D03*
D14*
X31545500Y-18415000D03*
%TD*%
D13*
%TO.C,D3*%
X69645500Y-26035000D03*
D14*
X69645500Y-18415000D03*
%TD*%
D12*
%TO.C,K27*%
X232727500Y-38735000D03*
X239077500Y-36195000D03*
D10*
X241617500Y-41275000D03*
X231457500Y-41275000D03*
D11*
X236537500Y-41275000D03*
%TD*%
D12*
%TO.C,K22*%
X137477500Y-38735000D03*
D10*
X146367500Y-41275000D03*
X136207500Y-41275000D03*
D11*
X141287500Y-41275000D03*
D12*
X143827500Y-36195000D03*
%TD*%
D13*
%TO.C,D36*%
X160133000Y-64135000D03*
D14*
X160133000Y-56515000D03*
%TD*%
D13*
%TO.C,D14*%
X279195500Y-26035000D03*
D14*
X279195500Y-18415000D03*
%TD*%
D12*
%TO.C,K35*%
X127952500Y-57785000D03*
X134302500Y-55245000D03*
D10*
X126682500Y-60325000D03*
D11*
X131762500Y-60325000D03*
D10*
X136842500Y-60325000D03*
%TD*%
%TO.C,K9*%
X179705000Y-22225000D03*
X169545000Y-22225000D03*
D12*
X170815000Y-19685000D03*
D11*
X174625000Y-22225000D03*
D12*
X177165000Y-17145000D03*
%TD*%
D13*
%TO.C,D13*%
X260145500Y-26035000D03*
D14*
X260145500Y-18415000D03*
%TD*%
D13*
%TO.C,D30*%
X38689250Y-64135000D03*
D14*
X38689250Y-56515000D03*
%TD*%
D12*
%TO.C,K29*%
X285115000Y-38735000D03*
D10*
X283845000Y-41275000D03*
D11*
X288925000Y-41275000D03*
D10*
X294005000Y-41275000D03*
D12*
X291465000Y-36195000D03*
%TD*%
D11*
%TO.C,K39*%
X207962500Y-60325000D03*
D12*
X204152500Y-57785000D03*
D10*
X202882500Y-60325000D03*
D12*
X210502500Y-55245000D03*
D10*
X213042500Y-60325000D03*
%TD*%
D13*
%TO.C,D25*%
X207758000Y-45085000D03*
D14*
X207758000Y-37465000D03*
%TD*%
D12*
%TO.C,K55*%
X291465000Y-74295000D03*
D11*
X288925000Y-79375000D03*
D10*
X294005000Y-79375000D03*
X283845000Y-79375000D03*
D12*
X285115000Y-76835000D03*
%TD*%
D13*
%TO.C,D45*%
X50595500Y-83185000D03*
D14*
X50595500Y-75565000D03*
%TD*%
D10*
%TO.C,K6*%
X112395000Y-22225000D03*
D12*
X113665000Y-19685000D03*
X120015000Y-17145000D03*
D11*
X117475000Y-22225000D03*
D10*
X122555000Y-22225000D03*
%TD*%
D13*
%TO.C,D21*%
X131558000Y-45085000D03*
D14*
X131558000Y-37465000D03*
%TD*%
D12*
%TO.C,K46*%
X56515000Y-76835000D03*
X62865000Y-74295000D03*
D10*
X65405000Y-79375000D03*
D11*
X60325000Y-79375000D03*
D10*
X55245000Y-79375000D03*
%TD*%
D12*
%TO.C,K50*%
X189865000Y-76835000D03*
D10*
X188595000Y-79375000D03*
D11*
X193675000Y-79375000D03*
D10*
X198755000Y-79375000D03*
D12*
X196215000Y-74295000D03*
%TD*%
D13*
%TO.C,D34*%
X122033000Y-64135000D03*
D14*
X122033000Y-56515000D03*
%TD*%
D10*
%TO.C,K25*%
X203517500Y-41275000D03*
X193357500Y-41275000D03*
D12*
X200977500Y-36195000D03*
D11*
X198437500Y-41275000D03*
D12*
X194627500Y-38735000D03*
%TD*%
D13*
%TO.C,D4*%
X88695500Y-26035000D03*
D14*
X88695500Y-18415000D03*
%TD*%
D13*
%TO.C,D31*%
X64883000Y-64135000D03*
D14*
X64883000Y-56515000D03*
%TD*%
D13*
%TO.C,D5*%
X107745500Y-26035000D03*
D14*
X107745500Y-18415000D03*
%TD*%
D13*
%TO.C,D41*%
X257764250Y-64135000D03*
D14*
X257764250Y-56515000D03*
%TD*%
D13*
%TO.C,D15*%
X298245500Y-26035000D03*
D14*
X298245500Y-18415000D03*
%TD*%
D13*
%TO.C,D35*%
X141083000Y-64135000D03*
D14*
X141083000Y-56515000D03*
%TD*%
D13*
%TO.C,D38*%
X198233000Y-64135000D03*
D14*
X198233000Y-56515000D03*
%TD*%
D13*
%TO.C,D16*%
X33926750Y-45085000D03*
D14*
X33926750Y-37465000D03*
%TD*%
D11*
%TO.C,K8*%
X155575000Y-22225000D03*
D12*
X158115000Y-17145000D03*
D10*
X160655000Y-22225000D03*
D12*
X151765000Y-19685000D03*
D10*
X150495000Y-22225000D03*
%TD*%
D13*
%TO.C,D26*%
X226808000Y-45085000D03*
D14*
X226808000Y-37465000D03*
%TD*%
D12*
%TO.C,K43*%
X285115000Y-57785000D03*
D10*
X283845000Y-60325000D03*
X294005000Y-60325000D03*
D11*
X288925000Y-60325000D03*
D12*
X291465000Y-55245000D03*
%TD*%
D10*
%TO.C,K16*%
X29686250Y-41275000D03*
X19526250Y-41275000D03*
D12*
X27146250Y-36195000D03*
X20796250Y-38735000D03*
D11*
X24606250Y-41275000D03*
%TD*%
D13*
%TO.C,D51*%
X222045500Y-83185000D03*
D14*
X222045500Y-75565000D03*
%TD*%
D12*
%TO.C,K12*%
X227965000Y-19685000D03*
D11*
X231775000Y-22225000D03*
D10*
X236855000Y-22225000D03*
X226695000Y-22225000D03*
D12*
X234315000Y-17145000D03*
%TD*%
%TO.C,K15*%
X291465000Y-17145000D03*
X285115000Y-19685000D03*
D11*
X288925000Y-22225000D03*
D10*
X294005000Y-22225000D03*
X283845000Y-22225000D03*
%TD*%
D13*
%TO.C,D53*%
X260145500Y-83185000D03*
D14*
X260145500Y-75565000D03*
%TD*%
D10*
%TO.C,K41*%
X243363750Y-60325000D03*
D12*
X244633750Y-57785000D03*
D10*
X253523750Y-60325000D03*
D12*
X250983750Y-55245000D03*
D11*
X248443750Y-60325000D03*
%TD*%
D13*
%TO.C,D22*%
X150608000Y-45085000D03*
D14*
X150608000Y-37465000D03*
%TD*%
D11*
%TO.C,K52*%
X231775000Y-79375000D03*
D12*
X227965000Y-76835000D03*
D10*
X226695000Y-79375000D03*
X236855000Y-79375000D03*
D12*
X234315000Y-74295000D03*
%TD*%
D13*
%TO.C,D27*%
X245858000Y-45085000D03*
D14*
X245858000Y-37465000D03*
%TD*%
D13*
%TO.C,D44*%
X31545500Y-83185000D03*
D14*
X31545500Y-75565000D03*
%TD*%
D10*
%TO.C,K51*%
X217805000Y-79375000D03*
X207645000Y-79375000D03*
D12*
X208915000Y-76835000D03*
D11*
X212725000Y-79375000D03*
D12*
X215265000Y-74295000D03*
%TD*%
D13*
%TO.C,D42*%
X279195500Y-64135000D03*
D14*
X279195500Y-56515000D03*
%TD*%
D12*
%TO.C,K32*%
X77152500Y-55245000D03*
D11*
X74612500Y-60325000D03*
D12*
X70802500Y-57785000D03*
D10*
X69532500Y-60325000D03*
X79692500Y-60325000D03*
%TD*%
D11*
%TO.C,K36*%
X150812500Y-60325000D03*
D10*
X155892500Y-60325000D03*
X145732500Y-60325000D03*
D12*
X153352500Y-55245000D03*
X147002500Y-57785000D03*
%TD*%
D11*
%TO.C,K28*%
X262731250Y-41275000D03*
D10*
X267811250Y-41275000D03*
X257651250Y-41275000D03*
D12*
X265271250Y-36195000D03*
X258921250Y-38735000D03*
%TD*%
D13*
%TO.C,D17*%
X55358000Y-45085000D03*
D14*
X55358000Y-37465000D03*
%TD*%
D10*
%TO.C,K14*%
X264795000Y-22225000D03*
D12*
X272415000Y-17145000D03*
D10*
X274955000Y-22225000D03*
D12*
X266065000Y-19685000D03*
D11*
X269875000Y-22225000D03*
%TD*%
D13*
%TO.C,D46*%
X69645500Y-83185000D03*
D14*
X69645500Y-75565000D03*
%TD*%
D10*
%TO.C,K26*%
X212407500Y-41275000D03*
X222567500Y-41275000D03*
D12*
X213677500Y-38735000D03*
D11*
X217487500Y-41275000D03*
D12*
X220027500Y-36195000D03*
%TD*%
D11*
%TO.C,K17*%
X46037500Y-41275000D03*
D12*
X42227500Y-38735000D03*
D10*
X51117500Y-41275000D03*
X40957500Y-41275000D03*
D12*
X48577500Y-36195000D03*
%TD*%
D10*
%TO.C,K13*%
X245745000Y-22225000D03*
D12*
X253365000Y-17145000D03*
X247015000Y-19685000D03*
D10*
X255905000Y-22225000D03*
D11*
X250825000Y-22225000D03*
%TD*%
D13*
%TO.C,D32*%
X83933000Y-64135000D03*
D14*
X83933000Y-56515000D03*
%TD*%
D13*
%TO.C,D23*%
X169658000Y-45085000D03*
D14*
X169658000Y-37465000D03*
%TD*%
D10*
%TO.C,K45*%
X36195000Y-79375000D03*
D12*
X37465000Y-76835000D03*
X43815000Y-74295000D03*
D11*
X41275000Y-79375000D03*
D10*
X46355000Y-79375000D03*
%TD*%
D12*
%TO.C,K20*%
X105727500Y-36195000D03*
D10*
X98107500Y-41275000D03*
D11*
X103187500Y-41275000D03*
D10*
X108267500Y-41275000D03*
D12*
X99377500Y-38735000D03*
%TD*%
D13*
%TO.C,D11*%
X222045500Y-26035000D03*
D14*
X222045500Y-18415000D03*
%TD*%
D12*
%TO.C,K24*%
X181927500Y-36195000D03*
D11*
X179387500Y-41275000D03*
D12*
X175577500Y-38735000D03*
D10*
X184467500Y-41275000D03*
X174307500Y-41275000D03*
%TD*%
%TO.C,K48*%
X138588750Y-79375000D03*
D12*
X146208750Y-74295000D03*
D11*
X143668750Y-79375000D03*
D12*
X139858750Y-76835000D03*
D10*
X148748750Y-79375000D03*
%TD*%
%TO.C,K38*%
X183832500Y-60325000D03*
X193992500Y-60325000D03*
D12*
X185102500Y-57785000D03*
X191452500Y-55245000D03*
D11*
X188912500Y-60325000D03*
%TD*%
D13*
%TO.C,D29*%
X298245500Y-45085000D03*
D14*
X298245500Y-37465000D03*
%TD*%
D13*
%TO.C,D6*%
X126795500Y-26035000D03*
D14*
X126795500Y-18415000D03*
%TD*%
D13*
%TO.C,D8*%
X164895500Y-26035000D03*
D14*
X164895500Y-18415000D03*
%TD*%
D13*
%TO.C,D28*%
X272051750Y-45085000D03*
D14*
X272051750Y-37465000D03*
%TD*%
D11*
%TO.C,K4*%
X79375000Y-22225000D03*
D12*
X81915000Y-17145000D03*
X75565000Y-19685000D03*
D10*
X84455000Y-22225000D03*
X74295000Y-22225000D03*
%TD*%
D13*
%TO.C,D50*%
X202995500Y-83185000D03*
D14*
X202995500Y-75565000D03*
%TD*%
D11*
%TO.C,K37*%
X169862500Y-60325000D03*
D10*
X164782500Y-60325000D03*
D12*
X172402500Y-55245000D03*
D10*
X174942500Y-60325000D03*
D12*
X166052500Y-57785000D03*
%TD*%
D16*
%TO.C,REF\u002A\u002A*%
X107981750Y-72390000D03*
X84105750Y-72390000D03*
D15*
X84105750Y-87600000D03*
X107981750Y-87600000D03*
%TD*%
D10*
%TO.C,K2*%
X46355000Y-22225000D03*
D12*
X43815000Y-17145000D03*
D11*
X41275000Y-22225000D03*
D10*
X36195000Y-22225000D03*
D12*
X37465000Y-19685000D03*
%TD*%
D13*
%TO.C,D24*%
X188708000Y-45085000D03*
D14*
X188708000Y-37465000D03*
%TD*%
D12*
%TO.C,K42*%
X272415000Y-55245000D03*
D10*
X274955000Y-60325000D03*
X264795000Y-60325000D03*
D12*
X266065000Y-57785000D03*
D11*
X269875000Y-60325000D03*
%TD*%
D12*
%TO.C,K47*%
X98583750Y-74295000D03*
D11*
X96043750Y-79375000D03*
D10*
X90963750Y-79375000D03*
D12*
X92233750Y-76835000D03*
D10*
X101123750Y-79375000D03*
%TD*%
D12*
%TO.C,K40*%
X229552500Y-55245000D03*
D10*
X221932500Y-60325000D03*
D11*
X227012500Y-60325000D03*
D12*
X223202500Y-57785000D03*
D10*
X232092500Y-60325000D03*
%TD*%
%TO.C,K23*%
X165417500Y-41275000D03*
D12*
X162877500Y-36195000D03*
D10*
X155257500Y-41275000D03*
D11*
X160337500Y-41275000D03*
D12*
X156527500Y-38735000D03*
%TD*%
D10*
%TO.C,K31*%
X50482500Y-60325000D03*
D11*
X55562500Y-60325000D03*
D10*
X60642500Y-60325000D03*
D12*
X51752500Y-57785000D03*
X58102500Y-55245000D03*
%TD*%
D11*
%TO.C,K30*%
X29368750Y-60325000D03*
D10*
X34448750Y-60325000D03*
X24288750Y-60325000D03*
D12*
X31908750Y-55245000D03*
X25558750Y-57785000D03*
%TD*%
D10*
%TO.C,K21*%
X127317500Y-41275000D03*
D12*
X118427500Y-38735000D03*
D10*
X117157500Y-41275000D03*
D11*
X122237500Y-41275000D03*
D12*
X124777500Y-36195000D03*
%TD*%
%TO.C,K19*%
X80327500Y-38735000D03*
D11*
X84137500Y-41275000D03*
D12*
X86677500Y-36195000D03*
D10*
X79057500Y-41275000D03*
X89217500Y-41275000D03*
%TD*%
D13*
%TO.C,D43*%
X298245500Y-64135000D03*
D14*
X298245500Y-56515000D03*
%TD*%
D11*
%TO.C,K3*%
X60325000Y-22225000D03*
D10*
X55245000Y-22225000D03*
X65405000Y-22225000D03*
D12*
X56515000Y-19685000D03*
X62865000Y-17145000D03*
%TD*%
%TO.C,K33*%
X96202500Y-55245000D03*
D10*
X88582500Y-60325000D03*
D11*
X93662500Y-60325000D03*
D12*
X89852500Y-57785000D03*
D10*
X98742500Y-60325000D03*
%TD*%
D13*
%TO.C,D49*%
X183945500Y-83185000D03*
D14*
X183945500Y-75565000D03*
%TD*%
D11*
%TO.C,K53*%
X250825000Y-79375000D03*
D10*
X255905000Y-79375000D03*
D12*
X253365000Y-74295000D03*
D10*
X245745000Y-79375000D03*
D12*
X247015000Y-76835000D03*
%TD*%
D10*
%TO.C,K5*%
X103505000Y-22225000D03*
X93345000Y-22225000D03*
D12*
X94615000Y-19685000D03*
D11*
X98425000Y-22225000D03*
D12*
X100965000Y-17145000D03*
%TD*%
D13*
%TO.C,D10*%
X202995500Y-26035000D03*
D14*
X202995500Y-18415000D03*
%TD*%
D13*
%TO.C,D18*%
X74408000Y-45085000D03*
D14*
X74408000Y-37465000D03*
%TD*%
D13*
%TO.C,D20*%
X112508000Y-45085000D03*
D14*
X112508000Y-37465000D03*
%TD*%
D13*
%TO.C,D7*%
X145845500Y-26035000D03*
D14*
X145845500Y-18415000D03*
%TD*%
D13*
%TO.C,D40*%
X236333000Y-64135000D03*
D14*
X236333000Y-56515000D03*
%TD*%
D17*
%TO.C,U1*%
X21138000Y-30988000D03*
D18*
X23678000Y-30988000D03*
X26218000Y-30988000D03*
X28758000Y-30988000D03*
X31298000Y-30988000D03*
X33838000Y-30988000D03*
X36378000Y-30988000D03*
X38918000Y-30988000D03*
X41458000Y-30988000D03*
X43998000Y-30988000D03*
X46538000Y-30988000D03*
X49078000Y-30988000D03*
X49078000Y-51562000D03*
X46538000Y-51562000D03*
X43998000Y-51562000D03*
X41458000Y-51562000D03*
X38918000Y-51562000D03*
X36378000Y-51562000D03*
X33838000Y-51562000D03*
X31298000Y-51562000D03*
X28758000Y-51562000D03*
X26218000Y-51562000D03*
X23678000Y-51562000D03*
X21138000Y-51562000D03*
%TD*%
M02*
